<?xml version="1.0" encoding="UTF-8" standalone="no"?>
<!-- Created with Inkscape (http://www.inkscape.org/) -->

<svg
   xmlns:dc="http://purl.org/dc/elements/1.1/"
   xmlns:cc="http://creativecommons.org/ns#"
   xmlns:rdf="http://www.w3.org/1999/02/22-rdf-syntax-ns#"
   xmlns:svg="http://www.w3.org/2000/svg"
   xmlns="http://www.w3.org/2000/svg"
   xmlns:xlink="http://www.w3.org/1999/xlink"
   xmlns:sodipodi="http://sodipodi.sourceforge.net/DTD/sodipodi-0.dtd"
   xmlns:inkscape="http://www.inkscape.org/namespaces/inkscape"
   inkscape:version="0.48.1 r9760"
   version="1.1"
   id="svg2"
   height="1052.3622047"
   width="744.09448819"
   sodipodi:docname="collaboration.svg">
  <sodipodi:namedview
     id="base"
     pagecolor="#ffffff"
     bordercolor="#666666"
     borderopacity="1.0"
     inkscape:pageopacity="0.0"
     inkscape:pageshadow="2"
     inkscape:zoom="1.4"
     inkscape:cx="324.26665"
     inkscape:cy="452.4596"
     inkscape:document-units="px"
     inkscape:current-layer="layer1"
     showgrid="false"
     inkscape:window-width="1241"
     inkscape:window-height="756"
     inkscape:window-x="0"
     inkscape:window-y="0"
     inkscape:window-maximized="1"
     showguides="true"
     inkscape:guide-bbox="true">
    <inkscape:grid
       type="xygrid"
       id="grid2985" />
  </sodipodi:namedview>
  <defs
     id="defs4">
    <marker
       inkscape:stockid="Arrow1Send"
       orient="auto"
       refY="0.0"
       refX="0.0"
       id="Arrow1Send"
       style="overflow:visible;">
      <path
         id="path3978"
         d="M 0.0,0.0 L 5.0,-5.0 L -12.5,0.0 L 5.0,5.0 L 0.0,0.0 z "
         style="fill-rule:evenodd;stroke:#000000;stroke-width:1.0pt;marker-start:none;"
         transform="scale(0.2) rotate(180) translate(6,0)" />
    </marker>
    <marker
       inkscape:stockid="Arrow1Sstart"
       orient="auto"
       refY="0.0"
       refX="0.0"
       id="Arrow1Sstart"
       style="overflow:visible">
      <path
         id="path3975"
         d="M 0.0,0.0 L 5.0,-5.0 L -12.5,0.0 L 5.0,5.0 L 0.0,0.0 z "
         style="fill-rule:evenodd;stroke:#000000;stroke-width:1.0pt;marker-start:none"
         transform="scale(0.2) translate(6,0)" />
    </marker>
    <linearGradient
       id="linearGradient5970">
      <stop
         style="stop-color:#207087;stop-opacity:1;"
         offset="0"
         id="stop5972" />
      <stop
         style="stop-color:#204a87;stop-opacity:0"
         offset="1"
         id="stop5974" />
    </linearGradient>
    <linearGradient
       id="linearGradient5962">
      <stop
         style="stop-color:#0081e5;stop-opacity:1;"
         offset="0"
         id="stop5964" />
      <stop
         style="stop-color:#3aa9ff;stop-opacity:0.40944883;"
         offset="1"
         id="stop5966" />
    </linearGradient>
    <linearGradient
       id="linearGradient5946">
      <stop
         style="stop-color:#2d9ebc;stop-opacity:1;"
         offset="0"
         id="stop5948" />
      <stop
         style="stop-color:#2f6dc6;stop-opacity:1;"
         offset="1"
         id="stop5950" />
    </linearGradient>
    <linearGradient
       id="linearGradient5654">
      <stop
         id="stop5656"
         offset="0"
         style="stop-color:#207087;stop-opacity:1;" />
      <stop
         id="stop5658"
         offset="1"
         style="stop-color:#204a87;stop-opacity:1;" />
    </linearGradient>
    <marker
       inkscape:stockid="Arrow2Mend"
       orient="auto"
       refY="0.0"
       refX="0.0"
       id="Arrow2Mend"
       style="overflow:visible;">
      <path
         id="path3990"
         style="font-size:12.0;fill-rule:evenodd;stroke-width:0.62500000;stroke-linejoin:round;"
         d="M 8.7185878,4.0337352 L -2.2072895,0.016013256 L 8.7185884,-4.0017078 C 6.9730900,-1.6296469 6.9831476,1.6157441 8.7185878,4.0337352 z "
         transform="scale(0.6) rotate(180) translate(0,0)" />
    </marker>
    <marker
       inkscape:stockid="Arrow2Mstart"
       orient="auto"
       refY="0.0"
       refX="0.0"
       id="Arrow2Mstart"
       style="overflow:visible">
      <path
         id="path3987"
         style="font-size:12.0;fill-rule:evenodd;stroke-width:0.62500000;stroke-linejoin:round"
         d="M 8.7185878,4.0337352 L -2.2072895,0.016013256 L 8.7185884,-4.0017078 C 6.9730900,-1.6296469 6.9831476,1.6157441 8.7185878,4.0337352 z "
         transform="scale(0.6) translate(0,0)" />
    </marker>
    <marker
       inkscape:stockid="Arrow2MstartO"
       orient="auto"
       refY="0.0"
       refX="0.0"
       id="Arrow2MstartO"
       style="overflow:visible">
      <path
         id="path4597"
         style="stroke-linejoin:round;font-size:12.0;fill-rule:evenodd;stroke:#2e3436;stroke-width:0.62500000;fill:#2e3436"
         d="M 8.7185878,4.0337352 L -2.2072895,0.016013256 L 8.7185884,-4.0017078 C 6.9730900,-1.6296469 6.9831476,1.6157441 8.7185878,4.0337352 z "
         transform="scale(0.6) translate(0,0)" />
    </marker>
    <marker
       inkscape:stockid="Arrow2Mendt"
       orient="auto"
       refY="0.0"
       refX="0.0"
       id="Arrow2Mendt"
       style="overflow:visible;">
      <path
         id="path4600"
         style="stroke-linejoin:round;font-size:12.0;fill-rule:evenodd;stroke:#2e3436;stroke-width:0.62500000;fill:#2e3436"
         d="M 8.7185878,4.0337352 L -2.2072895,0.016013256 L 8.7185884,-4.0017078 C 6.9730900,-1.6296469 6.9831476,1.6157441 8.7185878,4.0337352 z "
         transform="scale(0.6) rotate(180) translate(0,0)" />
    </marker>
    <marker
       inkscape:stockid="Arrow2MstartOD"
       orient="auto"
       refY="0.0"
       refX="0.0"
       id="Arrow2MstartOD"
       style="overflow:visible">
      <path
         id="path5772"
         style="stroke-linejoin:round;font-size:12.0;fill-rule:evenodd;stroke:#204a87;stroke-width:0.62500000;fill:#204a87"
         d="M 8.7185878,4.0337352 L -2.2072895,0.016013256 L 8.7185884,-4.0017078 C 6.9730900,-1.6296469 6.9831476,1.6157441 8.7185878,4.0337352 z "
         transform="scale(0.6) translate(0,0)" />
    </marker>
    <marker
       inkscape:stockid="Arrow2Mendt2"
       orient="auto"
       refY="0.0"
       refX="0.0"
       id="Arrow2Mendt2"
       style="overflow:visible;">
      <path
         id="path5775"
         style="stroke-linejoin:round;font-size:12.0;fill-rule:evenodd;stroke:#204a87;stroke-width:0.62500000;fill:#204a87"
         d="M 8.7185878,4.0337352 L -2.2072895,0.016013256 L 8.7185884,-4.0017078 C 6.9730900,-1.6296469 6.9831476,1.6157441 8.7185878,4.0337352 z "
         transform="scale(0.6) rotate(180) translate(0,0)" />
    </marker>
    <marker
       inkscape:stockid="Arrow2MstartODY"
       orient="auto"
       refY="0.0"
       refX="0.0"
       id="Arrow2MstartODY"
       style="overflow:visible">
      <path
         id="path5858"
         style="stroke-linejoin:round;font-size:12.0;fill-rule:evenodd;stroke:#204a87;stroke-width:0.62500000;fill:#204a87"
         d="M 8.7185878,4.0337352 L -2.2072895,0.016013256 L 8.7185884,-4.0017078 C 6.9730900,-1.6296469 6.9831476,1.6157441 8.7185878,4.0337352 z "
         transform="scale(0.6) translate(0,0)" />
    </marker>
    <marker
       inkscape:stockid="Arrow2MendtQ"
       orient="auto"
       refY="0.0"
       refX="0.0"
       id="Arrow2MendtQ"
       style="overflow:visible;">
      <path
         id="path5861"
         style="stroke-linejoin:round;font-size:12.0;fill-rule:evenodd;stroke:#204a87;stroke-width:0.62500000;fill:#204a87"
         d="M 8.7185878,4.0337352 L -2.2072895,0.016013256 L 8.7185884,-4.0017078 C 6.9730900,-1.6296469 6.9831476,1.6157441 8.7185878,4.0337352 z "
         transform="scale(0.6) rotate(180) translate(0,0)" />
    </marker>
    <marker
       inkscape:stockid="Arrow2MstartOn"
       orient="auto"
       refY="0.0"
       refX="0.0"
       id="Arrow2MstartOn"
       style="overflow:visible">
      <path
         id="path5864"
         style="stroke-linejoin:round;font-size:12.0;fill-rule:evenodd;stroke:#204a87;stroke-width:0.62500000;fill:#204a87"
         d="M 8.7185878,4.0337352 L -2.2072895,0.016013256 L 8.7185884,-4.0017078 C 6.9730900,-1.6296469 6.9831476,1.6157441 8.7185878,4.0337352 z "
         transform="scale(0.6) translate(0,0)" />
    </marker>
    <marker
       inkscape:stockid="Arrow2Mendtg"
       orient="auto"
       refY="0.0"
       refX="0.0"
       id="Arrow2Mendtg"
       style="overflow:visible;">
      <path
         id="path5867"
         style="stroke-linejoin:round;font-size:12.0;fill-rule:evenodd;stroke:#204a87;stroke-width:0.62500000;fill:#204a87"
         d="M 8.7185878,4.0337352 L -2.2072895,0.016013256 L 8.7185884,-4.0017078 C 6.9730900,-1.6296469 6.9831476,1.6157441 8.7185878,4.0337352 z "
         transform="scale(0.6) rotate(180) translate(0,0)" />
    </marker>
    <marker
       inkscape:stockid="Arrow2MstartOz"
       orient="auto"
       refY="0.0"
       refX="0.0"
       id="Arrow2MstartOz"
       style="overflow:visible">
      <path
         id="path5870"
         style="stroke-linejoin:round;font-size:12.0;fill-rule:evenodd;stroke:#204a87;stroke-width:0.62500000;fill:#204a87"
         d="M 8.7185878,4.0337352 L -2.2072895,0.016013256 L 8.7185884,-4.0017078 C 6.9730900,-1.6296469 6.9831476,1.6157441 8.7185878,4.0337352 z "
         transform="scale(0.6) translate(0,0)" />
    </marker>
    <marker
       inkscape:stockid="Arrow2Mendtt"
       orient="auto"
       refY="0.0"
       refX="0.0"
       id="Arrow2Mendtt"
       style="overflow:visible;">
      <path
         id="path5873"
         style="stroke-linejoin:round;font-size:12.0;fill-rule:evenodd;stroke:#204a87;stroke-width:0.62500000;fill:#204a87"
         d="M 8.7185878,4.0337352 L -2.2072895,0.016013256 L 8.7185884,-4.0017078 C 6.9730900,-1.6296469 6.9831476,1.6157441 8.7185878,4.0337352 z "
         transform="scale(0.6) rotate(180) translate(0,0)" />
    </marker>
    <linearGradient
       inkscape:collect="always"
       xlink:href="#linearGradient5962"
       id="linearGradient5968"
       x1="368.75003"
       y1="875.14612"
       x2="366.70428"
       y2="676.14612"
       gradientUnits="userSpaceOnUse" />
    <linearGradient
       inkscape:collect="always"
       xlink:href="#linearGradient5962"
       id="linearGradient5999"
       x1="360.67856"
       y1="599.51788"
       x2="358.60715"
       y2="423.80356"
       gradientUnits="userSpaceOnUse" />
    <linearGradient
       inkscape:collect="always"
       xlink:href="#linearGradient5962"
       id="linearGradient7677"
       gradientUnits="userSpaceOnUse"
       x1="360.67856"
       y1="599.51788"
       x2="358.60715"
       y2="423.80356"
       gradientTransform="translate(10.714286,235)" />
    <filter
       id="filter8251"
       inkscape:label="Drop shadow"
       inkscape:menu="Shadows and Glows"
       inkscape:menu-tooltip="Darken the edges with an inner blur"
       color-interpolation-filters="sRGB"
       width="1.5"
       height="1.5"
       x="-.25"
       y="-.25">
      <feGaussianBlur
         id="feGaussianBlur8253"
         result="result6"
         stdDeviation="1.5" />
      <feComposite
         in2="result6"
         id="feComposite8255"
         operator="atop"
         in="SourceGraphic"
         result="result8" />
      <feComposite
         in2="SourceAlpha"
         id="feComposite8257"
         in="result8"
         operator="atop"
         result="fbSourceGraphic" />
      <feColorMatrix
         result="fbSourceGraphicAlpha"
         in="fbSourceGraphic"
         values="0 0 0 -1 0 0 0 0 -1 0 0 0 0 -1 0 0 0 0 1 0"
         id="feColorMatrix8259" />
      <feGaussianBlur
         id="feGaussianBlur8261"
         in="fbSourceGraphicAlpha"
         stdDeviation="1"
         result="blur" />
      <feColorMatrix
         id="feColorMatrix8263"
         result="bluralpha"
         type="matrix"
         values="1 0 0 0 0 0 1 0 0 0 0 0 1 0 0 0 0 0 0.6 0 " />
      <feOffset
         id="feOffset8265"
         in="bluralpha"
         dx="5"
         dy="5"
         result="offsetBlur" />
      <feMerge
         id="feMerge8267">
        <feMergeNode
           id="feMergeNode8269"
           in="offsetBlur" />
        <feMergeNode
           id="feMergeNode8271"
           in="fbSourceGraphic" />
      </feMerge>
    </filter>
  </defs>
  <metadata
     id="metadata7">
    <rdf:RDF>
      <cc:Work
         rdf:about="">
        <dc:format>image/svg+xml</dc:format>
        <dc:type
           rdf:resource="http://purl.org/dc/dcmitype/StillImage" />
        <dc:title></dc:title>
      </cc:Work>
    </rdf:RDF>
  </metadata>
  <g
     inkscape:label="Layer 1"
     inkscape:groupmode="layer"
     id="layer1">
    <path
       style="opacity:0.55412370000000000;fill:url(#linearGradient5999);fill-opacity:1;stroke:#3465a4;stroke-width:1.50000000000000000;stroke-linecap:butt;stroke-linejoin:round;stroke-miterlimit:4;stroke-opacity:0.65333331;stroke-dasharray:none"
       d="M 360 422.375 C 350.33502 422.375 342.5 430.21002 342.5 439.875 C 342.5 449.53998 350.33502 457.375 360 457.375 C 369.66498 457.375 377.5 449.53998 377.5 439.875 C 377.5 430.21002 369.66498 422.375 360 422.375 z M 308.75 443.59375 C 304.27136 443.59375 299.79209 445.30166 296.375 448.71875 C 289.54082 455.55293 289.54082 466.63457 296.375 473.46875 C 303.20918 480.30293 314.25957 480.30293 321.09375 473.46875 C 327.92793 466.63457 327.92793 455.55293 321.09375 448.71875 C 317.67666 445.30166 313.22864 443.59375 308.75 443.59375 z M 411.25 443.59375 C 406.77136 443.59375 402.32334 445.30166 398.90625 448.71875 C 392.07207 455.55293 392.07207 466.63457 398.90625 473.46875 C 405.74043 480.30293 416.79082 480.30293 423.625 473.46875 C 430.45918 466.63457 430.45918 455.55293 423.625 448.71875 C 420.20791 445.30166 415.72864 443.59375 411.25 443.59375 z M 360 472.375 C 337.90861 472.375 320 490.28361 320 512.375 C 320 534.46639 337.90861 552.375 360 552.375 C 382.09139 552.375 400 534.46639 400 512.375 C 400 490.28361 382.09139 472.375 360 472.375 z M 287.5 494.875 C 277.83502 494.875 270 502.71002 270 512.375 C 270 522.03998 277.83502 529.875 287.5 529.875 C 297.16498 529.875 305 522.03998 305 512.375 C 305 502.71002 297.16498 494.875 287.5 494.875 z M 432.5 494.875 C 422.83502 494.875 415 502.71002 415 512.375 C 415 522.03998 422.83502 529.875 432.5 529.875 C 442.16498 529.875 450 522.03998 450 512.375 C 450 502.71002 442.16498 494.875 432.5 494.875 z M 308.75 546.125 C 304.27136 546.125 299.79209 547.83291 296.375 551.25 C 289.54082 558.08418 289.54082 569.16582 296.375 576 C 303.20918 582.83418 314.25957 582.83418 321.09375 576 C 327.92793 569.16582 327.92793 558.08418 321.09375 551.25 C 317.67666 547.83291 313.22864 546.125 308.75 546.125 z M 411.25 546.125 C 406.77136 546.125 402.32334 547.83291 398.90625 551.25 C 392.07207 558.08418 392.07207 569.16582 398.90625 576 C 405.74043 582.83418 416.79082 582.83418 423.625 576 C 430.45918 569.16582 430.45918 558.08418 423.625 551.25 C 420.20791 547.83291 415.72864 546.125 411.25 546.125 z M 360 567.375 C 350.33502 567.375 342.5 575.21002 342.5 584.875 C 342.5 594.53998 350.33502 602.375 360 602.375 C 369.66498 602.375 377.5 594.53998 377.5 584.875 C 377.5 575.21002 369.66498 567.375 360 567.375 z "
       id="path2987"
       inkscape:export-filename="/Users/chmu/Projects/dynamo/engine/docs/src/manual/images/engine/collaboration.png"
       inkscape:export-xdpi="99.169998"
       inkscape:export-ydpi="99.169998" />
    <path
       sodipodi:nodetypes="cc"
       inkscape:connector-curvature="0"
       id="path3190"
       d="m 389.48731,481.8813 6.76423,-7.36883"
       style="opacity:0.77586209;fill:none;stroke:#2e3436;stroke-width:1px;stroke-linecap:butt;stroke-linejoin:miter;stroke-opacity:1;marker-start:url(#Arrow1Sstart);marker-end:url(#Arrow1Send)" />
    <path
       style="opacity:0.77586209;fill:none;stroke:#2e3436;stroke-width:1px;stroke-linecap:butt;stroke-linejoin:miter;stroke-opacity:1;marker-start:url(#Arrow1Sstart);marker-end:url(#Arrow1Send)"
       d="m 330.19399,481.80616 -6.532,-6.67486"
       id="path4640"
       inkscape:connector-curvature="0"
       sodipodi:nodetypes="cc" />
    <path
       sodipodi:nodetypes="cc"
       inkscape:connector-curvature="0"
       id="path4644"
       d="m 327.28707,540.17971 -6.27946,7.032"
       style="opacity:0.77586209;fill:none;stroke:#2e3436;stroke-width:1px;stroke-linecap:butt;stroke-linejoin:miter;stroke-opacity:1;marker-start:url(#Arrow1Sstart);marker-end:url(#Arrow1Send)" />
    <path
       style="opacity:0.77586209;fill:none;stroke:#2e3436;stroke-width:1px;stroke-linecap:butt;stroke-linejoin:miter;stroke-opacity:1;marker-start:url(#Arrow1Sstart);marker-end:url(#Arrow1Send)"
       d="m 390.13896,542.12487 6.93247,7.55874"
       id="path4650"
       inkscape:connector-curvature="0"
       sodipodi:nodetypes="cc" />
    <path
       id="path7667"
       d="m 370.71429,657.375 c -9.66498,0 -17.5,7.83502 -17.5,17.5 0,9.66498 7.83502,17.5 17.5,17.5 9.66498,0 17.5,-7.83502 17.5,-17.5 0,-9.66498 -7.83502,-17.5 -17.5,-17.5 z m -51.25,21.21875 c -4.47864,0 -8.95791,1.70791 -12.375,5.125 -6.83418,6.83418 -6.83418,17.91582 0,24.75 6.83418,6.83418 17.88457,6.83418 24.71875,0 6.83418,-6.83418 6.83418,-17.91582 0,-24.75 -3.41709,-3.41709 -7.86511,-5.125 -12.34375,-5.125 z m 102.5,0 c -4.47864,0 -8.92666,1.70791 -12.34375,5.125 -6.83418,6.83418 -6.83418,17.91582 0,24.75 6.83418,6.83418 17.88457,6.83418 24.71875,0 6.83418,-6.83418 6.83418,-17.91582 0,-24.75 -3.41709,-3.41709 -7.89636,-5.125 -12.375,-5.125 z m -51.25,28.78125 c -22.09139,0 -40,17.90861 -40,40 0,22.09139 17.90861,40 40,40 22.09139,0 40,-17.90861 40,-40 0,-22.09139 -17.90861,-40 -40,-40 z m -72.5,22.5 c -9.66498,0 -17.5,7.83502 -17.5,17.5 0,9.66498 7.83502,17.5 17.5,17.5 9.66498,0 17.5,-7.83502 17.5,-17.5 0,-9.66498 -7.83502,-17.5 -17.5,-17.5 z m 145,0 c -9.66498,0 -17.5,7.83502 -17.5,17.5 0,9.66498 7.83502,17.5 17.5,17.5 9.66498,0 17.5,-7.83502 17.5,-17.5 0,-9.66498 -7.83502,-17.5 -17.5,-17.5 z m -123.75,51.25 c -4.47864,0 -8.95791,1.70791 -12.375,5.125 -6.83418,6.83418 -6.83418,17.91582 0,24.75 6.83418,6.83418 17.88457,6.83418 24.71875,0 6.83418,-6.83418 6.83418,-17.91582 0,-24.75 -3.41709,-3.41709 -7.86511,-5.125 -12.34375,-5.125 z m 102.5,0 c -4.47864,0 -8.92666,1.70791 -12.34375,5.125 -6.83418,6.83418 -6.83418,17.91582 0,24.75 6.83418,6.83418 17.88457,6.83418 24.71875,0 6.83418,-6.83418 6.83418,-17.91582 0,-24.75 -3.41709,-3.41709 -7.89636,-5.125 -12.375,-5.125 z m -51.25,21.25 c -9.66498,0 -17.5,7.83502 -17.5,17.5 0,9.66498 7.83502,17.5 17.5,17.5 9.66498,0 17.5,-7.83502 17.5,-17.5 0,-9.66498 -7.83502,-17.5 -17.5,-17.5 z"
       style="opacity:0.55412370000000000;fill:url(#linearGradient7677);fill-opacity:1;stroke:#3465a4;stroke-width:1.50000000000000000;stroke-linecap:butt;stroke-linejoin:round;stroke-miterlimit:4;stroke-opacity:0.65333330000000001;stroke-dasharray:none;filter:url(#filter8251)"
       inkscape:connector-curvature="0"
       inkscape:export-filename="/Users/chmu/Projects/dynamo/engine/docs/src/manual/images/engine/collaboration.png"
       inkscape:export-xdpi="132.23"
       inkscape:export-ydpi="132.23" />
    <path
       style="opacity:0.77586209;fill:none;stroke:#2e3436;stroke-width:1px;stroke-linecap:butt;stroke-linejoin:miter;stroke-opacity:1;marker-start:url(#Arrow1Sstart);marker-end:url(#Arrow1Send)"
       d="m 400.2016,716.8813 6.76423,-7.36883"
       id="path7669"
       inkscape:connector-curvature="0"
       sodipodi:nodetypes="cc"
       inkscape:export-filename="/Users/chmu/Projects/dynamo/engine/docs/src/manual/images/engine/collaboration.png"
       inkscape:export-xdpi="132.23"
       inkscape:export-ydpi="132.23" />
    <path
       sodipodi:nodetypes="cc"
       inkscape:connector-curvature="0"
       id="path7671"
       d="m 340.90828,716.80616 -6.532,-6.67486"
       style="opacity:0.77586209;fill:none;stroke:#2e3436;stroke-width:1px;stroke-linecap:butt;stroke-linejoin:miter;stroke-opacity:1;marker-start:url(#Arrow1Sstart);marker-end:url(#Arrow1Send)"
       inkscape:export-filename="/Users/chmu/Projects/dynamo/engine/docs/src/manual/images/engine/collaboration.png"
       inkscape:export-xdpi="132.23"
       inkscape:export-ydpi="132.23" />
    <path
       style="opacity:0.77586209;fill:none;stroke:#2e3436;stroke-width:1px;stroke-linecap:butt;stroke-linejoin:miter;stroke-opacity:1;marker-start:url(#Arrow1Sstart);marker-end:url(#Arrow1Send)"
       d="m 338.00136,775.17971 -6.27946,7.032"
       id="path7673"
       inkscape:connector-curvature="0"
       sodipodi:nodetypes="cc"
       inkscape:export-filename="/Users/chmu/Projects/dynamo/engine/docs/src/manual/images/engine/collaboration.png"
       inkscape:export-xdpi="132.23"
       inkscape:export-ydpi="132.23" />
    <path
       sodipodi:nodetypes="cc"
       inkscape:connector-curvature="0"
       id="path7675"
       d="m 400.85325,777.12487 6.93247,7.55874"
       style="opacity:0.77586209;fill:none;stroke:#2e3436;stroke-width:1px;stroke-linecap:butt;stroke-linejoin:miter;stroke-opacity:1;marker-start:url(#Arrow1Sstart);marker-end:url(#Arrow1Send)"
       inkscape:export-filename="/Users/chmu/Projects/dynamo/engine/docs/src/manual/images/engine/collaboration.png"
       inkscape:export-xdpi="132.23"
       inkscape:export-ydpi="132.23" />
  </g>
</svg>
