{
  "asset" : {
    "version" : "2.0",
    "generator" : "Defold GLTF test fixture generator"
  },
  "scene" : 0,
  "scenes" : [
    {
      "nodes" : [
        0
      ]
    }
  ],
  "nodes" : [
    {
      "mesh" : 0,
      "name" : "grid6"
    }
  ],
  "meshes" : [
    {
      "name" : "grid6",
      "primitives" : [
        {
          "attributes" : {
            "POSITION" : 0,
            "NORMAL" : 1,
            "TEXCOORD_0" : 2
          },
          "indices" : 3,
          "material" : 0
        }
      ]
    }
  ],
  "materials" : [
    {
      "name" : "grid",
      "pbrMetallicRoughness" : {
        "baseColorFactor" : [
          1,
          1,
          1,
          1
        ]
      }
    }
  ],
  "buffers" : [
    {
      "byteLength" : 184352,
      "uri" : "data:application/octet-stream;base64,"
    }
  ],
  "bufferViews" : [
    {
      "buffer" : 0,
      "byteOffset" : 0,
      "byteLength" : 50700,
      "target" : 34962
    },
    {
      "buffer" : 0,
      "byteOffset" : 50700,
      "byteLength" : 50700,
      "target" : 34962
    },
    {
      "buffer" : 0,
      "byteOffset" : 101400,
      "byteLength" : 33800,
      "target" : 34962
    },
    {
      "buffer" : 0,
      "byteOffset" : 135200,
      "byteLength" : 49152,
      "target" : 34963
    }
  ],
  "accessors" : [
    {
      "bufferView" : 0,
      "componentType" : 5126,
      "count" : 4225,
      "type" : "VEC3",
      "min" : [
        -190.0,
        -300.0,
        0.0
      ],
      "max" : [
        190.0,
        300.0,
        0.0
      ]
    },
    {
      "bufferView" : 1,
      "componentType" : 5126,
      "count" : 4225,
      "type" : "VEC3"
    },
    {
      "bufferView" : 2,
      "componentType" : 5126,
      "count" : 4225,
      "type" : "VEC2"
    },
    {
      "bufferView" : 3,
      "componentType" : 5123,
      "count" : 24576,
      "type" : "SCALAR",
      "min" : [
        0
      ],
      "max" : [
        4224
      ]
    }
  ]
}
