{
    "asset": {
        "version": "2.0"
    },
    "scene": 0,
    "scenes": [
        {
            "nodes": [
                2,
                0
            ]
        }
    ],
    "nodes": [
        {
            "name": "Bone",
            "children": [
                1
            ]
        },
        {
            "name": "Bone_001"
        },
        {
            "name": "SkinnedMesh",
            "mesh": 0,
            "skin": 0
        }
    ],
    "meshes": [
        {
            "name": "Mesh",
            "primitives": [
                {
                    "attributes": {
                        "POSITION": 1,
                        "JOINTS_0": 2,
                        "WEIGHTS_0": 3,
                        "JOINTS_1": 4,
                        "WEIGHTS_1": 5
                    },
                    "indices": 0,
                    "material": 0
                }
            ]
        }
    ],
    "materials": [
        {}
    ],
    "skins": [
        {
            "inverseBindMatrices": 6,
            "joints": [
                0,
                1
            ]
        }
    ],
    "accessors": [
        {
            "bufferView": 0,
            "componentType": 5123,
            "count": 3,
            "type": "SCALAR"
        },
        {
            "bufferView": 1,
            "componentType": 5126,
            "count": 3,
            "max": [
                1.0,
                1.0,
                0.0
            ],
            "min": [
                0.0,
                0.0,
                0.0
            ],
            "type": "VEC3"
        },
        {
            "bufferView": 2,
            "componentType": 5123,
            "count": 3,
            "type": "VEC4"
        },
        {
            "bufferView": 3,
            "componentType": 5126,
            "count": 3,
            "type": "VEC4"
        },
        {
            "bufferView": 4,
            "componentType": 5123,
            "count": 3,
            "type": "VEC4"
        },
        {
            "bufferView": 5,
            "componentType": 5126,
            "count": 3,
            "type": "VEC4"
        },
        {
            "bufferView": 6,
            "componentType": 5126,
            "count": 2,
            "type": "MAT4"
        }
    ],
    "bufferViews": [
        {
            "buffer": 0,
            "byteOffset": 0,
            "byteLength": 6
        },
        {
            "buffer": 0,
            "byteOffset": 8,
            "byteLength": 36
        },
        {
            "buffer": 0,
            "byteOffset": 44,
            "byteLength": 24
        },
        {
            "buffer": 0,
            "byteOffset": 68,
            "byteLength": 48
        },
        {
            "buffer": 0,
            "byteOffset": 116,
            "byteLength": 24
        },
        {
            "buffer": 0,
            "byteOffset": 140,
            "byteLength": 48
        },
        {
            "buffer": 0,
            "byteOffset": 188,
            "byteLength": 128
        }
    ],
    "buffers": [
        {
            "byteLength": 316,
            "uri": "data:application/octet-stream;base64,"
        }
    ]
}
