<svg id="Layer_1" data-name="Layer 1" xmlns="http://www.w3.org/2000/svg" viewBox="0 0 125 75"><defs><style>.cls-1{fill:#231f20;}</style></defs><path class="cls-1" d="M117,22.41l-17.5-13a.43.43,0,0,0-.33-.09L58,12a.51.51,0,0,0-.47.49l-.29,26L38.77,6.13h0A.49.49,0,0,0,38.61,6l0,0a.55.55,0,0,0-.17-.05h-.13l-.09,0-.08,0a.5.5,0,0,0-.17.15h0l-30,42.78a.48.48,0,0,0-.06.45.51.51,0,0,0,.32.32L45.36,61.28l.15,0h.07l.07,0,.08,0a.31.31,0,0,0,.11-.08l0,0,0,0h0L57.07,48.57,57,54.46a.49.49,0,0,0,.17.38L73.73,69l.07,0,.06,0a.4.4,0,0,0,.15,0h.08l42.31-3.18a.5.5,0,0,0,.46-.5l.32-42.63A.48.48,0,0,0,117,22.41Zm-1.68,0L74.85,25.16,59.31,12.88,99,10.28ZM38,7.72l6.91,52.37L9.12,48.89Zm7.86,51.93L39.16,8.84l18,31.59L57.09,47Zm12.3-19.27a.65.65,0,0,0,0-.14l.3-26.75L74.18,25.91l-.61,41.64L58,54.24Zm16.39,27.7.62-41.94,41-2.8L115.87,65Z"/></svg>