<svg id="Layer_1" data-name="Layer 1" xmlns="http://www.w3.org/2000/svg" viewBox="0 0 125 75"><defs><style>.cls-1{fill:#231f20;}</style></defs><path class="cls-1" d="M62,46a9,9,0,1,1,9-9A9,9,0,0,1,62,46Zm0-17a8,8,0,1,0,8,8A8,8,0,0,0,62,29Zm-6,8a6,6,0,0,1,6-6,.5.5,0,0,0,0-1,7,7,0,0,0-7,7,.5.5,0,0,0,1,0Zm6,34.5a.46.46,0,0,1-.38-.18l-5.5-6.52a.47.47,0,0,1-.07-.53A.49.49,0,0,1,56.5,64H59V50.5a.5.5,0,0,1,.5-.5h5a.5.5,0,0,1,.5.5V64h2.5a.49.49,0,0,1,.45.29.47.47,0,0,1-.07.53l-5.5,6.52A.46.46,0,0,1,62,71.5ZM57.58,65,62,70.22,66.42,65H64.5a.5.5,0,0,1-.5-.5V51H60V64.48a.5.5,0,0,1-.5.5ZM64.5,24h-5a.5.5,0,0,1-.5-.5V10H56.5a.49.49,0,0,1-.45-.29.47.47,0,0,1,.07-.53l5.5-6.52a.5.5,0,0,1,.76,0l5.5,6.52a.47.47,0,0,1,.07.53.49.49,0,0,1-.45.29H65V23.5A.5.5,0,0,1,64.5,24ZM60,23h4V9.52a.5.5,0,0,1,.5-.5h1.92L62,3.78,57.58,9H59.5a.5.5,0,0,1,.5.5ZM34.52,43a.47.47,0,0,1-.32-.12l-6.52-5.5a.49.49,0,0,1,0-.76l6.52-5.5a.47.47,0,0,1,.53-.07.49.49,0,0,1,.29.45V34H48.5a.5.5,0,0,1,.5.5v5a.5.5,0,0,1-.5.5H35v2.5a.49.49,0,0,1-.29.45A.54.54,0,0,1,34.52,43Zm-5.74-6L34,41.42V39.5a.5.5,0,0,1,.5-.5H48V35H34.52a.5.5,0,0,1-.5-.5V32.58Zm60.7,6a.54.54,0,0,1-.21,0A.49.49,0,0,1,89,42.5V40H75.5a.5.5,0,0,1-.5-.5v-5a.5.5,0,0,1,.5-.5H89V31.5a.49.49,0,0,1,.29-.45.47.47,0,0,1,.53.07l6.52,5.5a.49.49,0,0,1,0,.76l-6.52,5.5A.47.47,0,0,1,89.48,43ZM76,39H89.48a.5.5,0,0,1,.5.5v1.92L95.22,37,90,32.58V34.5a.5.5,0,0,1-.5.5H76ZM38,61.54a.54.54,0,0,1-.36-.14.53.53,0,0,1-.14-.4l.72-8.5a.53.53,0,0,1,.33-.43.5.5,0,0,1,.52.12L40.8,54l9.53-9.54a.51.51,0,0,1,.71,0L54.58,48a.51.51,0,0,1,0,.71L45,58.2,46.81,60a.5.5,0,0,1,.12.52.53.53,0,0,1-.43.33l-8.5.72Zm1.13-7.88-.58,6.83,6.83-.58L44,58.55a.5.5,0,0,1,0-.7l9.53-9.54-2.82-2.82L41.15,55a.5.5,0,0,1-.35.14h0a.5.5,0,0,1-.35-.14ZM73.31,29.72a.54.54,0,0,1-.35-.14L69.42,26a.51.51,0,0,1,0-.71L79,15.8,77.19,14a.5.5,0,0,1-.12-.52.53.53,0,0,1,.43-.33l8.5-.72a.49.49,0,0,1,.54.54l-.72,8.5a.53.53,0,0,1-.33.43.48.48,0,0,1-.52-.12L83.2,20l-9.53,9.54A.54.54,0,0,1,73.31,29.72Zm-2.82-4,2.82,2.82L82.85,19a.5.5,0,0,1,.35-.14h0a.5.5,0,0,1,.35.14l1.36,1.36.58-6.83-6.83.58L80,15.45a.5.5,0,0,1,0,.7Zm-19.8,4a.54.54,0,0,1-.36-.14L40.8,20,39,21.81a.48.48,0,0,1-.52.12.53.53,0,0,1-.33-.43L37.46,13a.49.49,0,0,1,.54-.54l8.5.72a.53.53,0,0,1,.43.33.5.5,0,0,1-.12.52L45,15.8l9.54,9.53a.51.51,0,0,1,0,.71L51,29.58A.54.54,0,0,1,50.69,29.72ZM40.8,18.84a.5.5,0,0,1,.35.14l9.54,9.53,2.82-2.82L44,16.15a.5.5,0,0,1,0-.7l1.36-1.36-6.83-.58.58,6.83L40.45,19A.5.5,0,0,1,40.8,18.84ZM86,61.54h0l-8.5-.72a.53.53,0,0,1-.43-.33.5.5,0,0,1,.12-.52L79,58.2l-9.54-9.53a.51.51,0,0,1,0-.71L73,44.42a.51.51,0,0,1,.71,0L83.2,54,85,52.19a.5.5,0,0,1,.52-.12.53.53,0,0,1,.33.43l.72,8.5a.53.53,0,0,1-.14.4A.54.54,0,0,1,86,61.54Zm-7.38-1.63,6.83.58-.58-6.83L83.55,55a.52.52,0,0,1-.7,0l-9.54-9.53-2.82,2.82L80,57.85a.5.5,0,0,1,0,.7Z"/></svg>