<svg id="Layer_1" data-name="Layer 1" xmlns="http://www.w3.org/2000/svg" viewBox="0 0 125 75"><defs><style>.cls-1{fill:#231f20;}</style></defs><path class="cls-1" d="M68,35.5A1.5,1.5,0,1,0,66.5,37,1.5,1.5,0,0,0,68,35.5Zm-2,0a.5.5,0,1,1,.5.5A.5.5,0,0,1,66,35.5Zm-4,0A1.5,1.5,0,1,0,60.5,37,1.5,1.5,0,0,0,62,35.5Zm-2,0a.5.5,0,1,1,.5.5A.5.5,0,0,1,60,35.5Zm13.5,7c.28,0,.4.11.64.35a1.78,1.78,0,0,0,1.36.65,1.76,1.76,0,0,0,1.35-.65c.24-.24.36-.35.64-.35s.41.11.65.35a1.74,1.74,0,0,0,2.71,0c.24-.24.37-.35.65-.35s.4.11.65.35a1.74,1.74,0,0,0,1.35.65H84v-9a6.5,6.5,0,0,0-13,0v9h.5a1.74,1.74,0,0,0,1.35-.65C73.1,42.61,73.22,42.5,73.5,42.5ZM72,42.29V34.5a5.5,5.5,0,0,1,11,0v7.79l-.15-.14a1.74,1.74,0,0,0-1.35-.65,1.78,1.78,0,0,0-1.36.65c-.24.24-.36.35-.65.35s-.4-.11-.64-.35a1.74,1.74,0,0,0-2.71,0c-.24.24-.36.35-.64.35s-.41-.11-.65-.35a1.76,1.76,0,0,0-1.35-.65,1.78,1.78,0,0,0-1.36.65ZM83,36a1,1,0,1,1-1-1A1,1,0,0,1,83,36Zm-27-.5A1.5,1.5,0,1,0,54.5,37,1.5,1.5,0,0,0,56,35.5Zm-2,0a.5.5,0,1,1,.5.5A.5.5,0,0,1,54,35.5ZM78,36a1,1,0,1,1,1,1A1,1,0,0,1,78,36ZM45,33a1,1,0,1,1-1-1A1,1,0,0,1,45,33Zm6.73-2.48a1,1,0,0,0-.33-.7A7.5,7.5,0,1,0,45.79,43c.24,0,.47,0,.71,0a7.39,7.39,0,0,0,4.89-1.82.94.94,0,0,0,.34-.7,1,1,0,0,0-.3-.75L47.21,35.5l4.22-4.23A1,1,0,0,0,51.73,30.52ZM46.5,34.79a1,1,0,0,0,0,1.42l4.24,4.22A6.48,6.48,0,0,1,45.88,42a6.57,6.57,0,0,1-5.83-5.64,6.5,6.5,0,0,1,10.68-5.76ZM96,59.5a.5.5,0,0,1-.5.5h-15a.5.5,0,0,1,0-1h15A.5.5,0,0,1,96,59.5ZM27.5,7A1.5,1.5,0,1,0,29,8.5,1.5,1.5,0,0,0,27.5,7Zm0,2a.5.5,0,1,1,.5-.5A.5.5,0,0,1,27.5,9Zm4-2A1.5,1.5,0,1,0,33,8.5,1.5,1.5,0,0,0,31.5,7Zm0,2a.5.5,0,1,1,.5-.5A.5.5,0,0,1,31.5,9Zm4-2A1.5,1.5,0,1,0,37,8.5,1.5,1.5,0,0,0,35.5,7Zm0,2a.5.5,0,1,1,.5-.5A.5.5,0,0,1,35.5,9Zm72.17,50.66,0-.09,0-.12,0-.14a5.32,5.32,0,0,0-.55-1,.41.41,0,0,1-.07-.11,1.27,1.27,0,0,1-.1-.12,5.37,5.37,0,0,0-3-1.93A6.63,6.63,0,0,0,103,56v0a1,1,0,0,1,1-1h1a2,2,0,0,0,0-4h-4V7.5A2.5,2.5,0,0,0,98.5,5h-72A2.5,2.5,0,0,0,24,7.5v50A2.5,2.5,0,0,0,26.5,60H36a.5.5,0,0,0,.5-.5A.5.5,0,0,0,36,59H26.5A1.5,1.5,0,0,1,25,57.5V12h75V54.5a.5.5,0,0,0,.5.5.5.5,0,0,0,.5-.5V52h4a1,1,0,0,1,0,2h-1a2,2,0,0,0-2,2v0h-.14l-.11,0a7.1,7.1,0,0,0-.8.17l-.13,0a5,5,0,0,0-.76.31l-.24.13a3.84,3.84,0,0,0-.5.32,2.32,2.32,0,0,0-.3.22c-.17.14-.33.29-.48.44a2.62,2.62,0,0,0-.22.25,5.82,5.82,0,0,0-.48.63.83.83,0,0,1-.07.13,5.85,5.85,0,0,0-.35.71l-.06.11-.18.47h0A5.34,5.34,0,0,0,97,61.5a5.71,5.71,0,0,0,.23,1.59,1.26,1.26,0,0,0,1.21.91h8.12a1.26,1.26,0,0,0,1.21-.91A5.51,5.51,0,0,0,107.67,59.66ZM25,11V7.5A1.5,1.5,0,0,1,26.5,6h72A1.5,1.5,0,0,1,100,7.5V11ZM99.45,59.79l-.94-.36a.75.75,0,0,1,.07-.12,3.34,3.34,0,0,1,.25-.4l.14-.19a3.16,3.16,0,0,1,.38-.43l.21-.19.26-.2a3.3,3.3,0,0,1,.39-.26l.27-.15.36-.16c.12,0,.23-.09.35-.12l.34-.09.4-.07H102v1A3.54,3.54,0,0,0,99.45,59.79ZM103,57a4.44,4.44,0,0,1,.62.1A4.38,4.38,0,0,1,106,58.62l0,0a5.21,5.21,0,0,1,.48.74l0,0-1,.36A3.52,3.52,0,0,0,103,58Zm3.81,5.77a.27.27,0,0,1-.25.19H98.44a.26.26,0,0,1-.25-.2A4.4,4.4,0,0,1,98,61.5a4.35,4.35,0,0,1,.15-1.14l1.85.72.18-.48a2.48,2.48,0,0,1,4.64,0l.18.48,1.85-.71A4.57,4.57,0,0,1,106.81,62.81ZM80,61.35a0,0,0,0,0,0,0s0,0,0-.06l-.05-.07a.23.23,0,0,0-.07-.07l0,0-3-2a.45.45,0,0,0-.25-.07H40.47a.45.45,0,0,0-.25.07l-3,2,0,0-.07.07,0,.07s0,0,0,.06a0,0,0,0,0,0,0,.44.44,0,0,0,0,.1s0,0,0,0v1A1.5,1.5,0,0,0,38.5,64h40A1.5,1.5,0,0,0,80,62.5v-1s0,0,0,0A.44.44,0,0,0,80,61.35ZM77.85,61H75l-1.2-1h2.57ZM47.53,60l-.92,1H43.47l1.12-1Zm1.06,0H51.8l-.61,1H47.83Zm4.07,0H56l-.29,1H52.25Zm4.12,0h3.43l0,1H56.71Zm4.44,1L61,60h3.38l.38,1Zm4.55,0-.59-1H68.4l.74,1Zm4.59,0-.9-1H72.4l1.12,1ZM40.65,60h2.56L42,61H39.15ZM79,62.5a.51.51,0,0,1-.5.5h-40a.51.51,0,0,1-.5-.5V62H79Z"/></svg>