<svg id="Layer_1" data-name="Layer 1" xmlns="http://www.w3.org/2000/svg" viewBox="0 0 125 75"><defs><style>.cls-1{fill:#231f20;}</style></defs><path class="cls-1" d="M39.5,22h-6a.5.5,0,0,0,0,1h6a.5.5,0,0,0,0-1Zm1-12A1.5,1.5,0,1,0,42,11.5,1.5,1.5,0,0,0,40.5,10Zm0,2a.5.5,0,0,1-.5-.5.5.5,0,0,1,1,0A.5.5,0,0,1,40.5,12Zm-4-2A1.5,1.5,0,1,0,38,11.5,1.5,1.5,0,0,0,36.5,10Zm0,2a.5.5,0,0,1-.5-.5.5.5,0,0,1,1,0A.5.5,0,0,1,36.5,12Zm-4-2A1.5,1.5,0,1,0,34,11.5,1.5,1.5,0,0,0,32.5,10Zm0,2a.5.5,0,0,1-.5-.5.5.5,0,0,1,1,0A.5.5,0,0,1,32.5,12ZM99,53H95.49a2.53,2.53,0,0,0,.51-1.5v-41A2.5,2.5,0,0,0,93.51,8h-27L64.45,3.58A1,1,0,0,0,63.52,3H61.46a1,1,0,0,0-.9.58L58.5,8h-27A2.5,2.5,0,0,0,29,10.49v41a2.53,2.53,0,0,0,.51,1.5H25a1,1,0,0,0-1,1v2a1,1,0,0,0,1,1H35.64L29.28,70.64A1,1,0,0,0,29.76,72l1.82.85a1.06,1.06,0,0,0,.42.09,1,1,0,0,0,.91-.58L36.32,65H88.67l3.41,7.32a1,1,0,0,0,.91.58,1.06,1.06,0,0,0,.42-.09L95.24,72a1,1,0,0,0,.47-1.33L89.36,57H99a1,1,0,0,0,1-1V54A1,1,0,0,0,99,53ZM61.46,4h2.08L65.4,8H59.6ZM30,10.5A1.5,1.5,0,0,1,31.49,9h62A1.5,1.5,0,0,1,95,10.5V14H30ZM30,15H95V51.52A1.49,1.49,0,0,1,93.51,53h-62A1.49,1.49,0,0,1,30,51.52ZM94.82,71.07,93,71.92,89.58,64.6a1,1,0,0,0-.91-.58H36.32a1,1,0,0,0-.91.58L32,71.92l-1.81-.85,6.55-14H39L37.28,60.6a1,1,0,0,0,.07,1,1,1,0,0,0,.84.46H86.8a1,1,0,0,0,.84-.46,1,1,0,0,0,.07-1L86,57h2.23ZM40.06,57H84.94l1.86,4H38.19ZM99,56H25V54H99ZM40.5,10A1.5,1.5,0,1,0,42,11.5,1.5,1.5,0,0,0,40.5,10Zm0,2a.5.5,0,0,1-.5-.5.5.5,0,0,1,1,0A.5.5,0,0,1,40.5,12Zm-7,11h6a.5.5,0,0,0,0-1h-6a.5.5,0,0,0,0,1Zm3-13A1.5,1.5,0,1,0,38,11.5,1.5,1.5,0,0,0,36.5,10Zm0,2a.5.5,0,0,1-.5-.5.5.5,0,0,1,1,0A.5.5,0,0,1,36.5,12Zm-4-2A1.5,1.5,0,1,0,34,11.5,1.5,1.5,0,0,0,32.5,10Zm0,2a.5.5,0,0,1-.5-.5.5.5,0,0,1,1,0A.5.5,0,0,1,32.5,12Zm4-2A1.5,1.5,0,1,0,38,11.5,1.5,1.5,0,0,0,36.5,10Zm0,2a.5.5,0,0,1-.5-.5.5.5,0,0,1,1,0A.5.5,0,0,1,36.5,12Zm4-2A1.5,1.5,0,1,0,42,11.5,1.5,1.5,0,0,0,40.5,10Zm0,2a.5.5,0,0,1-.5-.5.5.5,0,0,1,1,0A.5.5,0,0,1,40.5,12Zm-8-2A1.5,1.5,0,1,0,34,11.5,1.5,1.5,0,0,0,32.5,10Zm0,2a.5.5,0,0,1-.5-.5.5.5,0,0,1,1,0A.5.5,0,0,1,32.5,12Zm7,10h-6a.5.5,0,0,0,0,1h6a.5.5,0,0,0,0-1Z"/></svg>