<svg id="Layer_1" data-name="Layer 1" xmlns="http://www.w3.org/2000/svg" viewBox="0 0 125 75"><defs><style>.cls-1{fill:#231f20;}</style></defs><path class="cls-1" d="M92.93,31.54a.39.39,0,0,0-.08-.1.1.1,0,0,0-.06-.05l-.05,0L90,29.78v-.19c0-.93-1-1.5-2.5-1.5l-.39,0L85,26.89v-.3c0-.82-.75-1.37-2-1.47V14.47a.47.47,0,0,0-.07-.25.39.39,0,0,0-.08-.1.1.1,0,0,0,0,0l-.06,0L80,12.45c-.08-.85-1-1.37-2.41-1.39L75,9.58v0c0-.93-1-1.5-2.5-1.5S70,8.63,70,9.56l-2.61,1.51c-1.4,0-2.29.53-2.37,1.36l-2.53,1.46L60,12.44c-.07-.84-1-1.35-2.39-1.38L55,9.57h0c0-.93-1-1.5-2.5-1.5S50,8.63,50,9.56h0l-2.59,1.49c-1.42,0-2.32.55-2.4,1.39L42.26,14a.13.13,0,0,0-.06,0l-.05,0a.39.39,0,0,0-.08.1.47.47,0,0,0-.07.25V25.12c-1.25.1-2,.65-2,1.47v.3l-2.11,1.22-.39,0c-1.54,0-2.5.57-2.5,1.5v.19l-2.74,1.58a.5.5,0,0,0-.12.08.86.86,0,0,0-.07.1.31.31,0,0,0,0,.12.32.32,0,0,0,0,.13V43.35a.52.52,0,0,0,.25.43L42,49.41V60.66a.52.52,0,0,0,.25.44l9.89,5.7.11.07a.43.43,0,0,0,.25.07l.13,0a.22.22,0,0,0,.12,0l.11-.07,9.64-5.56,9.69,5.6a.46.46,0,0,0,.16.07.4.4,0,0,0,.15,0,.43.43,0,0,0,.25-.07l.11-.07,9.89-5.7a.5.5,0,0,0,.25-.44V49.41l9.75-5.63a.52.52,0,0,0,.25-.43V31.79A.47.47,0,0,0,92.93,31.54Zm-14-18.83h0a.7.7,0,0,1-.21.14h0a3.17,3.17,0,0,1-1.2.2c-.83,0-1.5-.22-1.5-.5s.51-.44,1.19-.49h.65a4,4,0,0,1,.41.06h0a1.69,1.69,0,0,1,.34.1h0a1.42,1.42,0,0,1,.22.13s0,0,0,0a.19.19,0,0,1,0,.31Zm-5.35-2.8h0a3.53,3.53,0,0,1-1.07.15,3.41,3.41,0,0,1-1.1-.16h0A.73.73,0,0,1,71,9.66a.19.19,0,0,1,0-.1.23.23,0,0,1,.08-.16s0,0,0,0a1.42,1.42,0,0,1,.22-.13h0a1.69,1.69,0,0,1,.34-.1h0a4,4,0,0,1,.41-.06h.68a4,4,0,0,1,.41.06h0a1.69,1.69,0,0,1,.34.1h0a1.42,1.42,0,0,1,.22.13s0,0,0,0a.23.23,0,0,1,.08.16C74,9.7,73.84,9.82,73.57,9.91Zm-5.91,2.16h.15c.68,0,1.19.25,1.19.49s-.67.5-1.5.5a3,3,0,0,1-1.21-.21h0a.63.63,0,0,1-.2-.13h0a.26.26,0,0,1-.07-.15.23.23,0,0,1,.08-.16s0,0,0,0a1.42,1.42,0,0,1,.22-.13h0a1.69,1.69,0,0,1,.34-.1h0a4,4,0,0,1,.41-.06h.5ZM65,13.6c0,.9,1,1.46,2.5,1.46s2.5-.57,2.5-1.5v-1a1.36,1.36,0,0,0-1-1.26l1-.6c.09.84,1,1.36,2.48,1.36s2.37-.51,2.48-1.34l1,.58a1.37,1.37,0,0,0-1,1.26v1c0,.93,1,1.5,2.5,1.5S80,14.51,80,13.6l1.51.87-9,5.2-9-5.2Zm11.54,9.55c-1,.2-1.54.69-1.54,1.41v1c0,.93,1,1.5,2.5,1.5s2.5-.57,2.5-1.5v-.41l1.5.87-9,5.2-9-5.2L65,25.15v.41c0,.93,1,1.5,2.5,1.5s2.5-.57,2.5-1.5v-1c0-.72-.57-1.22-1.54-1.41L70,22.26v.3c0,.93,1,1.5,2.5,1.5s2.5-.57,2.5-1.5v-.3Zm1.86,1,.19,0,.12.05.14.09a.18.18,0,0,1,.07.05.21.21,0,0,1,.08.15c0,.28-.67.5-1.5.5s-1.5-.22-1.5-.5.51-.44,1.19-.49h.62a2.65,2.65,0,0,1,.42.06ZM70,41.3c-.15-.7-.93-1.15-2.13-1.22L65,38.42c-.08-.74-.81-1.23-2-1.34V26.89l8.49,4.9.49.29h0V42.48Zm-1,.38h0a.36.36,0,0,1-.13.11h0a2.69,2.69,0,0,1-1.32.27c-.83,0-1.5-.22-1.5-.5s.51-.44,1.19-.49h.37l.29,0a2.32,2.32,0,0,1,.38.05h.08a2,2,0,0,1,.32.1l.05,0a.75.75,0,0,1,.22.12s0,0,0,0a.23.23,0,0,1,.08.16A.21.21,0,0,1,69,41.68Zm-5-3,0,0a.48.48,0,0,1-.19.13h0a3.71,3.71,0,0,1-2.46,0h0a.48.48,0,0,1-.19-.13l0,0a.21.21,0,0,1-.07-.14.23.23,0,0,1,.08-.16l0,0a1.42,1.42,0,0,1,.22-.13h0a1.69,1.69,0,0,1,.34-.1h0a4,4,0,0,1,.41-.06h.68a4,4,0,0,1,.41.06h0a1.69,1.69,0,0,1,.34.1h0a1.42,1.42,0,0,1,.22.13l0,0a.23.23,0,0,1,.08.16A.21.21,0,0,1,63.93,38.7ZM66,24.56a.21.21,0,0,1,.08-.15l.06-.05.15-.09.12-.05.19,0,.16,0a3,3,0,0,1,.43-.06h.62c.68.05,1.19.25,1.19.49s-.67.5-1.5.5S66,24.84,66,24.57h0Zm8-2.89a3,3,0,0,1-2.94,0h0a.23.23,0,0,1,0-.11.21.21,0,0,1,.09-.16l.08-.06a.71.71,0,0,1,.15-.08.85.85,0,0,1,.17-.06l.17-.05.26,0,.27,0h.62l.27,0,.26,0,.17.05a.85.85,0,0,1,.17.06.71.71,0,0,1,.15.08l.08.06a.21.21,0,0,1,.09.16.17.17,0,0,1,0,.11ZM63,15.33l8.41,4.85a1.81,1.81,0,0,0-1.27.85l-3.7,2.14a2,2,0,0,0-1.2.69L63,25.16ZM62,36.7v.38c-1.17.11-1.9.6-2,1.34l-2.86,1.66c-1.2.07-2,.52-2.13,1.22l-2,1.18V32.09h0l.49-.29h0L62,26.89Zm-4.5,4.36h.31c.68,0,1.19.25,1.19.49s-.67.5-1.5.5a2.69,2.69,0,0,1-1.32-.27h0a.36.36,0,0,1-.13-.11h0a.21.21,0,0,1,0-.12.23.23,0,0,1,.08-.16l0,0a.75.75,0,0,1,.22-.12l0,0a2,2,0,0,1,.32-.1h.08a2.32,2.32,0,0,1,.38-.05l.29,0h.06ZM62,25.13l-2.32-1.38a1.92,1.92,0,0,0-.83-.5L54.7,20.78a2,2,0,0,0-.92-.55l-.14-.08L62,15.33ZM57.5,24.06h.31a2.51,2.51,0,0,1,.82.17l.07,0,.16.09.06,0a.24.24,0,0,1,.08.16c0,.28-.67.5-1.5.5s-1.5-.22-1.5-.5.51-.44,1.19-.49ZM51,21.56a.21.21,0,0,1,.09-.16l.09-.06a.47.47,0,0,1,.14-.08,1,1,0,0,1,.18-.06l.16-.05.28,0,.25,0h.62a2.51,2.51,0,0,1,.82.17l.07,0,.16.09.06.05a.22.22,0,0,1,.08.15c0,.28-.67.5-1.5.5A2,2,0,0,1,51,21.67h0A.17.17,0,0,1,51,21.56Zm7.92-8.85h0a.7.7,0,0,1-.21.14h0a3.14,3.14,0,0,1-1.2.2c-.83,0-1.5-.22-1.5-.5s.51-.44,1.19-.49h.65a4,4,0,0,1,.41.06h0a1.69,1.69,0,0,1,.34.1h0a1.42,1.42,0,0,1,.22.13s0,0,0,0a.19.19,0,0,1,0,.31ZM54,9.66a.71.71,0,0,1-.39.24h0a4,4,0,0,1-2.16,0h0A.71.71,0,0,1,51,9.66a.19.19,0,0,1,0-.1.23.23,0,0,1,.08-.16s0,0,0,0a1.42,1.42,0,0,1,.22-.13h0a1.69,1.69,0,0,1,.34-.1h0a4,4,0,0,1,.41-.06h.68a4,4,0,0,1,.41.06h0a1.69,1.69,0,0,1,.34.1h0a1.42,1.42,0,0,1,.22.13s0,0,0,0a.23.23,0,0,1,.08.16A.19.19,0,0,1,54,9.66Zm-6.3,2.41h.14c.68,0,1.19.25,1.19.49s-.67.5-1.5.5a3.14,3.14,0,0,1-1.2-.2h0a.7.7,0,0,1-.21-.14h0a.19.19,0,0,1,0-.31s0,0,0,0a1.42,1.42,0,0,1,.22-.13h0a1.69,1.69,0,0,1,.34-.1h0a4,4,0,0,1,.41-.06h.51ZM45,13.6c0,.91,1,1.46,2.49,1.46s2.5-.57,2.5-1.5v-1a1.37,1.37,0,0,0-1-1.26l1-.59c.1.84,1,1.35,2.48,1.35s2.38-.51,2.48-1.35l1,.59a1.37,1.37,0,0,0-1,1.26v1c0,.93,1,1.5,2.5,1.5S60,14.51,60,13.6l1.49.86-9.14,5.11-8.84-5.1Zm-2,1.74,8.39,4.84a1.89,1.89,0,0,0-1.26.84l-3.72,2.16a2,2,0,0,0-1.17.68L43,25.15Zm3,9.22a.24.24,0,0,1,.08-.16l.07,0,.14-.09.12-.05.19,0,.17,0a2.65,2.65,0,0,1,.42-.06h.62c.68.05,1.19.25,1.19.49s-.67.5-1.5.5S46,24.84,46,24.56Zm-5,2c0-.22.42-.39,1-.46v.94l-.24,0,0,0C41.34,26.91,41,26.76,41,26.58Zm-5,3c0-.24.51-.43,1.18-.48h.62c.68,0,1.19.25,1.19.49s-.67.5-1.5.5a3.9,3.9,0,0,1-.89-.1l0,0C36.27,29.88,36,29.74,36,29.58ZM35,30.9c.19.74,1.1,1.19,2.46,1.19,1.54,0,2.5-.57,2.5-1.5v-1a1.27,1.27,0,0,0-.74-1.13l.82-.47c.21.6.89,1,1.92,1.07v2.06c-1.25.1-2,.65-2,1.47v1c0,.82.75,1.37,2,1.47V36.7l-8.5-4.91Zm7,1.22v.94c-.58-.07-1-.25-1-.47S41.42,32.19,42,32.12ZM52,65.57l-9-5.2V50l9,5.19Zm0-21.93V54l-8.5-4.9-.5-.29-.5-.29h0L42,48.26l-9-5.2V32.66l9,5.2.25.14.25.14h0l.5.28h0l8.49,4.9.5.29h0Zm0-11.55V42.48l-8.5-4.91-.5-.29V26.89l8.5,4.91.49.28h0Zm.5-.87-9-5.2,1.5-.87v.41c0,.93,1,1.5,2.5,1.5s2.5-.57,2.5-1.5v-1c0-.71-.57-1.21-1.53-1.41L50,22.27v.29c0,.93,1,1.5,2.5,1.5s2.5-.57,2.5-1.5v-.42l1.67,1c-1,.17-1.67.68-1.67,1.43v1c0,.93,1,1.5,2.5,1.5s2.5-.57,2.5-1.5v-.45l1.52.9ZM53,65.57V55.76l8.5,4.91Zm9-16.16V59.8l-8.51-4.91L53,54.61h0V44.21l8.49,4.91h0l.49.28h0Zm-8.5-6.07,1.5-.87v.09c0,.93,1,1.5,2.5,1.5s2.5-.57,2.5-1.5v-1c0-.62-.43-1.07-1.16-1.31L60,39.58c0,.92,1,1.48,2.5,1.48S65,40.5,65,39.58l1.16.67c-.73.24-1.16.69-1.16,1.31v1c0,.93,1,1.5,2.5,1.5s2.5-.57,2.5-1.5v-.09l1.5.87-9,5.2ZM72,65.57l-8.5-4.9L72,55.76Zm10-5.19-9,5.19V55.18L82,50Zm0-12.13v.58l-9.5,5.48-.19.12h0l-.09.05-.2.11-.49.29L63,59.8V49.41h0l.49-.28h0l9-5.2.19-.12,0,0,0,0,.22-.13h0l.5-.29L82,38.44ZM82,36.7v.58l-.5.29L73,42.48V32.09l.49-.29L82,26.88Zm0-11.55-2.24-1.29a1.9,1.9,0,0,0-1.18-.68L74.87,21a1.81,1.81,0,0,0-1.27-.85L82,15.34Zm5.19,4h.62c.67,0,1.17.24,1.18.48s-.26.3-.64.39l0,0a3.9,3.9,0,0,1-.89.1c-.83,0-1.5-.22-1.5-.5S86.51,29.15,87.19,29.1ZM83,27v-.91c.57.07,1,.24,1,.46s-.33.33-.79.41l0,0-.24,0Zm0,5.09c.58.07,1,.25,1,.47s-.42.4-1,.47Zm0,2.94c1.25-.1,2-.65,2-1.47v-1c0-.82-.75-1.37-2-1.47V29.06c1-.08,1.71-.47,1.92-1.07l.82.47A1.27,1.27,0,0,0,85,29.59v1c0,.93,1,1.5,2.5,1.5,1.36,0,2.27-.45,2.46-1.19l1.54.89L83,36.7Zm9,8-9,5.2V37.86l9-5.2ZM55,16.56v-1c0-.93-1-1.5-2.5-1.5s-2.5.57-2.5,1.5v1c0,.93,1,1.5,2.5,1.5S55,17.49,55,16.56Zm-4-1c0-.24.51-.44,1.19-.49h.62c.68,0,1.19.25,1.19.49s-.67.5-1.5.5S51,15.84,51,15.56Zm21.5,10.5c-1.54,0-2.5.57-2.5,1.5v1c0,.93,1,1.5,2.5,1.5s2.5-.57,2.5-1.5v-1C75,26.63,74,26.06,72.5,26.06Zm0,2c-.83,0-1.5-.22-1.5-.5s.51-.44,1.19-.49h.62c.68.05,1.19.25,1.19.49S73.33,28.06,72.5,28.06ZM75,16.56v-1c0-.93-1-1.5-2.5-1.5s-2.5.57-2.5,1.5v1c0,.93,1,1.5,2.5,1.5S75,17.49,75,16.56Zm-4-1c0-.24.51-.44,1.19-.49h.62c.68,0,1.19.25,1.19.49s-.67.5-1.5.5S71,15.84,71,15.56ZM52.5,26.06c-1.54,0-2.5.57-2.5,1.5v1c0,.93,1,1.5,2.5,1.5s2.5-.57,2.5-1.5v-1C55,26.63,54,26.06,52.5,26.06Zm0,2c-.83,0-1.5-.22-1.5-.5s.51-.44,1.19-.49h.62c.68.05,1.19.25,1.19.49S53.33,28.06,52.5,28.06Zm10,15c-1.54,0-2.5.57-2.5,1.5v1c0,.93,1,1.5,2.5,1.5s2.5-.57,2.5-1.5v-1C65,43.63,64,43.06,62.5,43.06Zm0,2c-.83,0-1.5-.22-1.5-.5s.51-.44,1.19-.49h.62c.68,0,1.19.25,1.19.49S63.33,45.06,62.5,45.06Z"/></svg>