<svg viewBox="0 0 125 75" xmlns="http://www.w3.org/2000/svg" style="fill-rule:evenodd;clip-rule:evenodd;stroke-linejoin:round;stroke-miterlimit:2;">
    <path id="path841" d="M87.589,24.394C87.368,25.966 85.914,27.24 84.342,27.24C82.771,27.24 81.675,25.966 81.898,24.394C82.119,22.821 83.572,21.547 85.143,21.547C86.715,21.547 87.81,22.82 87.589,24.394ZM102.939,12.244C101.72,10.338 99.987,8.803 97.736,7.636C95.481,6.472 92.769,5.886 89.59,5.886L67.992,5.886L71.62,11.846C71.62,11.846 67.794,17.17 67.744,17.172L56.914,17.172L60.935,11.511L57.869,5.886L41.025,5.886C37.847,5.886 34.944,6.473 32.311,7.636C29.681,8.803 27.465,10.081 25.627,11.985C24.914,12.743 24.423,13.466 23.773,14.342L23.469,14.829C22.251,17.134 21.232,19.637 20.411,22.339C19.59,25.041 18.781,28.498 17.985,32.71C17.192,36.92 16.794,40.989 16.794,44.908C16.794,51.372 18.146,56.407 20.846,60.01C22.065,61.546 23.588,62.683 25.415,63.425C27.246,64.168 29.282,64.538 31.536,64.538C33.787,64.538 36.104,64.22 38.488,63.587C40.448,63.108 42.355,61.915 44.211,60.01L47.15,64.061L54.017,64.061L60.747,73.596L75.157,73.62L69.57,64.061L81.401,64.061C86.116,64.061 90.012,63.266 93.085,61.679C99.228,58.448 103.309,50.234 105.324,37.041C105.906,33.122 106.197,29.677 106.197,26.71C106.198,20.616 105.111,15.794 102.939,12.244ZM92.372,35.133C91.417,41.065 90.066,45.493 88.317,48.406C86.571,51.321 84.158,52.775 81.086,52.775L69.418,52.775L74.971,43.222L60.811,43.298L50.062,58.245L54.017,64.061L53.598,64.061L49.643,58.264L60.312,43.359L61.354,33.97L45.497,33.96C45.453,33.969 45.407,33.979 45.364,33.987C45.091,34.042 44.824,34.099 44.565,34.16C44.452,34.187 44.342,34.215 44.232,34.242C44.004,34.299 43.779,34.357 43.564,34.418C43.405,34.462 43.252,34.512 43.099,34.559C42.94,34.61 42.777,34.657 42.625,34.71C42.319,34.816 42.024,34.925 41.746,35.043L40.476,43.23L46.752,43.23L45.805,48.562C45.592,48.88 45.355,49.145 45.091,49.355C44.815,49.588 44.54,49.804 44.26,50.01C44.158,50.086 44.054,50.154 43.952,50.227C43.778,50.349 43.602,50.467 43.427,50.579C43.295,50.662 43.165,50.743 43.032,50.821C42.89,50.904 42.747,50.983 42.604,51.059C42.449,51.144 42.293,51.229 42.136,51.306C42.082,51.331 42.03,51.353 41.977,51.376C41.534,51.585 41.085,51.761 40.632,51.909C40.607,51.916 40.583,51.927 40.559,51.933C40.322,52.008 40.084,52.071 39.844,52.131C39.806,52.14 39.766,52.15 39.727,52.159C39.479,52.217 39.23,52.267 38.98,52.308L36.983,52.774L35.876,52.774C32.803,52.774 30.864,51.318 30.064,48.405C29.262,45.492 29.348,41.065 30.322,35.132C31.152,30.789 31.906,27.571 32.587,25.475C33.266,23.383 34.112,21.714 35.128,20.469C35.784,19.664 36.465,19.021 37.173,18.537L37.174,18.537C37.346,18.418 37.523,18.309 37.7,18.21C37.734,18.191 37.768,18.172 37.801,18.153C37.983,18.056 38.164,17.963 38.35,17.886C39.484,17.411 40.819,17.172 42.354,17.172L86.172,17.172C87.708,17.172 88.965,17.411 89.945,17.886C90.925,18.365 91.72,19.226 92.328,20.469C92.939,21.714 93.244,23.384 93.244,25.475C93.245,27.572 92.952,30.79 92.372,35.133ZM73.714,28.175L78.392,28.175L77.737,32.855L73.055,32.855L73.714,28.175Z" style="fill-rule:nonzero;"/>
</svg>
