<svg id="Layer_1" data-name="Layer 1" xmlns="http://www.w3.org/2000/svg" viewBox="0 0 125 75"><defs><style>.cls-1{fill:#231f20;}</style></defs><path class="cls-1" d="M120.4,35.71l-11.32-5.64L108,29.51,97.77,24.4l-1.12-.56-10.19-5.1-1.12-.56-10.2-5.09L74,12.53,62.71,6.88,51.4,12.53,40.08,18.18l-.37.2-.75.36L28,24.21l-10.56,5.3L5,35.71H5v3.66l1,.5L62.71,68.12,119.4,39.58l1-.5V35.72h0Zm-2.24,0L108,40.82,97.77,35.71,108,30.62ZM61.59,41.38,51.4,46.47l-5.1-2.55-5.1-2.54,5.1-2.55,5.1-2.56Zm-9.08-5.67,10.2-5.09,10.2,5.09-10.2,5.11Zm10.2,6.22L72.91,47l-5.1,2.55-5.1,2.54-5.1-2.54L52.51,47Zm1.12-.55L74,36.27l10.2,5.11L74,46.47Zm11.31-5.67,10.2-5.09,5.1,2.54,5.09,2.55-5.09,2.56-5.1,2.55ZM74,35.15,63.83,30.07,74,25l10.2,5.11ZM62.71,29.51,52.51,24.4l5.1-2.55,5.1-2.55,5.1,2.55,5.1,2.55Zm-1.12.56L51.4,35.15l-5.1-2.54-5.1-2.54,5.1-2.55L51.4,25ZM45.18,33.16l5.1,2.55-5.1,2.56-5.1,2.55L29.89,35.71l10.19-5.09ZM39,41.38,28.77,46.47l-10.2-5.09,5.1-2.55,5.1-2.56Zm1.12.55,5.1,2.55L50.28,47l-5.1,2.55-5.1,2.54L29.89,47Zm6.22,8.21,5.1-2.55,5.09,2.55,5.1,2.54L51.4,57.78l-10.2-5.1Zm16.41,3.1,10.2,5.1-10.2,5.11-10.2-5.11Zm1.12-.56,5.1-2.54L74,47.59l5.1,2.55,5.1,2.54L74,57.78Zm16.41-3.1L75.14,47l10.2-5.1,5.1,2.55L95.53,47,85.34,52.12Zm11.31-5.66-5.09-2.54,5.09-2.55,5.1-2.56,10.2,5.11-10.2,5.09Zm15.3-13.85-10.2,5.08-5.1-2.54-5.09-2.54,5.09-2.55L96.65,25ZM95.53,24.4,90.44,27l-5.1,2.56L75.14,24.4l5.1-2.55,5.1-2.55ZM84.22,18.74l-5.1,2.55L74,23.84l-5.09-2.55-5.1-2.55L74,13.64ZM62.71,8l10.2,5.1-10.2,5.09-10.2-5.09ZM51.4,13.64l10.19,5.1-5.1,2.55L51.4,23.84l-5.1-2.55-5.1-2.55ZM40.08,19.3l5.1,2.55,5.1,2.55L45.18,27l-5.1,2.56L29.89,24.4ZM28.77,25,39,30.07,28.77,35.15l-5.1-2.54-5.1-2.54ZM17.46,30.62l5.09,2.54,5.1,2.55-5.1,2.56-5.09,2.55L7.26,35.71ZM119.4,38.45,62.71,67,6,38.76V36.2l11.46,5.73L28,47.21,39,52.68l.75.39.37.17L51.4,58.9l11.31,5.67L74,58.9l1.12-.56,10.2-5.1,1.12-.56,10.19-5.09L97.77,47,108,41.93l1.12-.55,10.32-5.17Z"/></svg>