<svg id="Layer_1" data-name="Layer 1" xmlns="http://www.w3.org/2000/svg" viewBox="0 0 125 75"><defs><style>.cls-1{fill:#231f20;}</style></defs><path class="cls-1" d="M73.21,45.17l.33,9.27a.48.48,0,0,1-.2.42.5.5,0,0,1-.47.07L62.17,51l-10.7,3.9a.47.47,0,0,1-.17,0,.45.45,0,0,1-.29-.1.49.49,0,0,1-.21-.42l.32-9.27a.52.52,0,0,1,.52-.48.5.5,0,0,1,.48.52l-.29,8.53L62,50a.5.5,0,0,1,.34,0l10.17,3.71-.3-8.53a.5.5,0,0,1,1,0ZM45.29,35.5a.5.5,0,0,0,.7.08.5.5,0,0,0,.09-.7l-.65-.82,10.41-3a.51.51,0,0,0,.28-.2l6.05-9,6.06,9a.45.45,0,0,0,.27.2l10.4,3-.64.82a.5.5,0,0,0,.08.7.47.47,0,0,0,.31.11.53.53,0,0,0,.4-.19l1.1-1.41a.5.5,0,0,0-.26-.79L69,30.16l-6.36-9.44a.52.52,0,0,0-.83,0l-6.37,9.44-11,3.14a.5.5,0,0,0-.33.33.46.46,0,0,0,.08.46Zm75.81-1.87a.51.51,0,0,0-.34-.33l-11-3.14-6.36-9.44a.52.52,0,0,0-.83,0l-6.37,9.44-11,3.14a.5.5,0,0,0-.33.33.48.48,0,0,0,.08.46l1.1,1.41a.5.5,0,0,0,.7.08.5.5,0,0,0,.09-.7l-.65-.82,10.41-3a.45.45,0,0,0,.27-.2l6.06-9,6.06,9a.45.45,0,0,0,.27.2l10.41,3-6.66,8.53a.49.49,0,0,0-.11.33l.38,10.82L103.2,50a.5.5,0,0,0-.34,0L92.69,53.74,93,45.21a.5.5,0,0,0-.48-.52.52.52,0,0,0-.52.48l-.32,9.27a.49.49,0,0,0,.21.42.45.45,0,0,0,.29.1.47.47,0,0,0,.17,0L103,51l10.7,3.9a.5.5,0,0,0,.47-.07.48.48,0,0,0,.2-.42L114,43.06l7-9A.51.51,0,0,0,121.1,33.63ZM31.83,44.69a.5.5,0,0,0-.48.52l.3,8.53L21.47,50a.5.5,0,0,0-.34,0L11,53.74l.38-10.82a.48.48,0,0,0-.1-.33L4.57,34.06l10.4-3a.51.51,0,0,0,.28-.2l6.05-9,6.06,9a.45.45,0,0,0,.27.2l10.41,3-.64.82a.5.5,0,0,0,.08.7.52.52,0,0,0,.71-.08l1.1-1.41A.5.5,0,0,0,39,33.3l-11-3.14-6.36-9.44a.52.52,0,0,0-.83,0l-6.37,9.44L3.58,33.3a.5.5,0,0,0-.33.33.46.46,0,0,0,.08.46l7,9-.4,11.38a.49.49,0,0,0,.21.42.45.45,0,0,0,.29.1.47.47,0,0,0,.17,0L21.3,51,32,54.93a.5.5,0,0,0,.47-.07.48.48,0,0,0,.2-.42l-.32-9.27A.52.52,0,0,0,31.83,44.69Zm69,.81V43H22.48A1.48,1.48,0,0,1,21,41.52v-3A1.48,1.48,0,0,1,22.48,37h78.36V34.5a.5.5,0,0,1,.29-.45.47.47,0,0,1,.53.07l6.52,5.5a.49.49,0,0,1,0,.76l-6.52,5.5a.47.47,0,0,1-.32.12.54.54,0,0,1-.21,0A.51.51,0,0,1,100.84,45.5Zm.5-3.5a.5.5,0,0,1,.5.5v1.92L107.09,40l-5.25-4.42V37.5a.5.5,0,0,1-.5.5H22.48a.48.48,0,0,0-.48.48v3a.48.48,0,0,0,.48.48Z"/></svg>