<svg id="Layer_1" data-name="Layer 1" xmlns="http://www.w3.org/2000/svg" viewBox="0 0 125 75"><defs><style>.cls-1{fill:#231f20;}</style></defs><path class="cls-1" d="M74,33H19a6,6,0,0,0-6,6V66a6,6,0,0,0,6,6H74a6,6,0,0,0,6-6V39A6,6,0,0,0,74,33Zm5,33a5,5,0,0,1-5,5H19a5,5,0,0,1-5-5V39a5,5,0,0,1,5-5H74a5,5,0,0,1,5,5ZM69,36H23a1,1,0,0,0-1,1V68a1,1,0,0,0,1,1H69a1,1,0,0,0,1-1V37A1,1,0,0,0,69,36Zm0,32H23V37H69Zm5.5-25A1.5,1.5,0,0,0,73,44.5v16a1.5,1.5,0,0,0,3,0v-16A1.5,1.5,0,0,0,74.5,43ZM75,60.5a.5.5,0,0,1-1,0v-16a.5.5,0,0,1,1,0ZM99,11V66a6,6,0,0,1-6,6H84a.5.5,0,0,1,0-1h9a5,5,0,0,0,5-5V11a5,5,0,0,0-5-5H66a5,5,0,0,0-5,5V29a.5.5,0,0,1-1,0V11a6,6,0,0,1,6-6H93A6,6,0,0,1,99,11ZM95,61V15H64V29a.5.5,0,0,1-1,0V15a1,1,0,0,1,1-1H95a1,1,0,0,1,1,1V61a1,1,0,0,1-1,1H84a.5.5,0,0,1,0-1Z"/></svg>