<svg id="Layer_1" data-name="Layer 1" xmlns="http://www.w3.org/2000/svg" viewBox="0 0 125 75"><defs><style>.cls-1{fill:#231f20;}</style></defs><path class="cls-1" d="M62.5,6A31.5,31.5,0,1,0,94,37.5,31.53,31.53,0,0,0,62.5,6ZM63,22a59.21,59.21,0,0,0,13.18-1.53A50,50,0,0,1,79,37H63Zm0-1V7c5.26.29,9.91,5.15,12.82,12.5A58.43,58.43,0,0,1,63,21Zm-1,0a58.43,58.43,0,0,1-12.82-1.47C52.09,12.17,56.74,7.31,62,7Zm0,1V37H46a50,50,0,0,1,2.81-16.54A59.21,59.21,0,0,0,62,22ZM45,37H32a30.38,30.38,0,0,1,7.72-19.76,39.93,39.93,0,0,0,8.15,3A50.43,50.43,0,0,0,45,37Zm0,1a50.43,50.43,0,0,0,2.87,16.77,39.93,39.93,0,0,0-8.15,3A30.38,30.38,0,0,1,32,38Zm1,0H62V53a59.21,59.21,0,0,0-13.18,1.53A50,50,0,0,1,46,38ZM62,54V68c-5.26-.29-9.91-5.15-12.82-12.5A58.43,58.43,0,0,1,62,54Zm1,0a58.43,58.43,0,0,1,12.82,1.47C72.91,62.83,68.26,67.69,63,68Zm0-1V38H79a50,50,0,0,1-2.81,16.54A59.21,59.21,0,0,0,63,53ZM80,38H93a30.38,30.38,0,0,1-7.72,19.76,39.93,39.93,0,0,0-8.15-3A50.43,50.43,0,0,0,80,38Zm0-1a50.43,50.43,0,0,0-2.87-16.77,39.93,39.93,0,0,0,8.15-3A30.38,30.38,0,0,1,93,37Zm4.57-20.53a38.68,38.68,0,0,1-7.79,2.82c-2.19-5.52-5.33-9.73-9-11.82A30.4,30.4,0,0,1,84.56,16.47Zm-27.34-9c-3.66,2.09-6.8,6.3-9,11.82a38.68,38.68,0,0,1-7.79-2.82A30.4,30.4,0,0,1,57.22,7.47ZM40.44,58.53a38.68,38.68,0,0,1,7.79-2.82c2.19,5.52,5.33,9.73,9,11.82A30.4,30.4,0,0,1,40.44,58.53Zm27.34,9c3.66-2.09,6.8-6.3,9-11.82a38.68,38.68,0,0,1,7.79,2.82A30.4,30.4,0,0,1,67.78,67.53Z"/></svg>