<svg id="Layer_1" data-name="Layer 1" xmlns="http://www.w3.org/2000/svg" viewBox="0 0 125 75"><defs><style>.cls-1{fill:#231f20;}</style></defs><path class="cls-1" d="M113,70H87V48H64V70H9a.5.5,0,0,0,0,1H113a.5.5,0,0,0,0-1ZM65,70V49H86V70Zm2-2H84V51H67Zm1-12.38,3.92,3.92L68,63.46Zm7.46,7.46L79.38,67H71.54ZM80.79,67l-4.63-4.63,2.15-2.14a.32.32,0,0,0,.08.12L83,64.94s0,0,0,0v2ZM83,63.55l-3.9-3.9a.6.6,0,0,0-.13-.09l4-4Zm0-9.43L70.12,67H68V64.88L80.88,52H83ZM75.46,56l-4-4h8ZM70,52l4.71,4.71-2.12,2.13L68,54.21V52ZM41.54,30.14l.24,0c-1.88,1.4-2.68,2.53-2.58,3.56s.84,1.62,2.32,2.15l.17,0a.5.5,0,0,0,.17-1c-.73-.26-1.61-.7-1.67-1.31-.07-.83,1.2-2.09,3.77-3.74a5.56,5.56,0,0,0,1.39-.72c3,1.86,4.41,4.69,4.15,8.66a.45.45,0,0,0,0,.23l0,0c-.44.66-.82,1.25-1.16,1.77C46.3,43,45.68,44,41.13,46.24a.5.5,0,0,0,.22.95.44.44,0,0,0,.22,0c4.8-2.39,5.51-3.49,7.62-6.75.34-.53.72-1.11,1.16-1.76a.62.62,0,0,0,.07-.23.47.47,0,0,0,.31,0l.43-.24c2.67-1.47,5.19-2.86,5.87-2.33.35.27.57,1.33-.33,4.87a.5.5,0,0,0,.36.61h.12a.5.5,0,0,0,.49-.37c.89-3.49.88-5.21,0-5.91-1.2-.93-3.37.27-7,2.25l-.18.09a9.53,9.53,0,0,0-2.75-7.57,10.29,10.29,0,0,0,2.37.31,6.23,6.23,0,0,0,2.77-.6A6.6,6.6,0,0,0,56.26,25a.5.5,0,1,0-1-.27,5.81,5.81,0,0,1-2.84,3.84c-1.55.75-3.61.64-6.13-.3a5.41,5.41,0,0,0,.18-6.85,5.4,5.4,0,0,0-3.61-2.05,5.42,5.42,0,0,0-6.06,4.7A5.43,5.43,0,0,0,41.54,30.14ZM37.83,24.2a4.43,4.43,0,0,1,4.38-3.87,3.64,3.64,0,0,1,.57,0,4.42,4.42,0,0,1,3.83,4.94A4.34,4.34,0,0,1,45.25,28h0l-.11,0h0c-.59.35-1.13.67-1.62,1a4.41,4.41,0,0,1-5.66-4.79ZM32.61,47.9a.49.49,0,0,1-.12-.69C33.28,46.09,34.12,45,35,44a.5.5,0,1,1,.75.66c-.83,1-1.65,2-2.42,3.11a.52.52,0,0,1-.41.22A.46.46,0,0,1,32.61,47.9Zm7.22-8a.49.49,0,0,1-.06.7c-.68.59-1.37,1.21-2,1.87a.52.52,0,0,1-.71,0,.51.51,0,0,1,0-.71c.68-.67,1.38-1.32,2.09-1.92A.49.49,0,0,1,39.83,39.93Zm-11,13.34c.62-1.22,1.28-2.4,2-3.53a.5.5,0,1,1,.85.52c-.67,1.11-1.32,2.27-1.93,3.46a.5.5,0,0,1-.44.27.59.59,0,0,1-.23-.05A.5.5,0,0,1,28.85,53.27ZM24.11,66.53c.29-1.3.63-2.61,1-3.9a.49.49,0,0,1,.62-.34.5.5,0,0,1,.33.62c-.37,1.27-.71,2.56-1,3.84a.5.5,0,0,1-.48.39h-.11A.5.5,0,0,1,24.11,66.53Zm2-6.78c.45-1.27.95-2.53,1.49-3.75a.5.5,0,0,1,.91.4c-.52,1.2-1,2.44-1.46,3.69a.5.5,0,0,1-.64.3A.49.49,0,0,1,26.07,59.75ZM114.44,15a7.06,7.06,0,0,0-3-1.75,7.35,7.35,0,0,0-7.22-5.83,7.25,7.25,0,0,0-1.79.22,10,10,0,0,0-7.18-3,10.08,10.08,0,0,0-10.07,8.87A7.05,7.05,0,0,0,88.06,27h21.38a7.06,7.06,0,0,0,5-12Zm-5,11.05H88.06a6.05,6.05,0,0,1-2.18-11.7l.28-.11,0-.31A9.09,9.09,0,0,1,95.3,5.61,9,9,0,0,1,102,8.49l.21.22.29-.08a6.55,6.55,0,0,1,1.81-.26,6.36,6.36,0,0,1,6.3,5.31l.05.32.32.08A6.05,6.05,0,0,1,109.44,26Z"/></svg>