<?xml version="1.0" encoding="UTF-8" standalone="no"?>
<!DOCTYPE svg PUBLIC "-//W3C//DTD SVG 1.1//EN" "http://www.w3.org/Graphics/SVG/1.1/DTD/svg11.dtd">
<svg width="100%" height="100%" viewBox="0 0 125 75" version="1.1" xmlns="http://www.w3.org/2000/svg" xmlns:xlink="http://www.w3.org/1999/xlink" xml:space="preserve" xmlns:serif="http://www.serif.com/" style="fill-rule:evenodd;clip-rule:evenodd;stroke-linejoin:round;stroke-miterlimit:2;">
    <path d="M28.1,44.3C25.9,44.3 24.8,44.7 24.4,44.8C24.8,46.5 26.3,47.8 28.1,47.8C29.9,47.8 31.4,46.5 31.8,44.8C31.3,44.7 30.3,44.3 28.1,44.3M28.1,48.9C25.4,48.9 23.2,46.7 23.2,43.9C23.2,41.1 25.5,39 28.1,39C30.7,39 33,41.2 33,43.9C33,46.6 30.8,48.9 28.1,48.9M28.1,36.8C25.8,36.8 23.9,37.6 22.6,39.1C21.5,40.4 20.9,42.1 20.9,44C20.9,45.9 21.5,47.7 22.7,49C24,50.5 25.9,51.2 28.2,51.2C30.5,51.2 32.3,50.4 33.6,49C34.8,47.7 35.4,46 35.4,44C35.4,42 34.8,40.3 33.6,39C32.3,37.5 30.4,36.8 28.2,36.8L28.1,36.8ZM38.7,7C37.9,7 37.2,7.7 37.2,8.5C37.2,9.3 37.9,10 38.7,10C39.5,10 40.2,9.3 40.2,8.5C40.2,7.7 39.5,7 38.7,7ZM38.7,9C38.4,9 38.2,8.8 38.2,8.5C38.2,8.2 38.4,8 38.7,8C39,8 39.2,8.2 39.2,8.5C39.2,8.8 39,9 38.7,9ZM106.7,59L91.7,59C91.4,59 91.2,59.2 91.2,59.5C91.2,59.8 91.4,60 91.7,60L106.7,60C107,60 107.2,59.8 107.2,59.5C107.2,59.2 107,59 106.7,59ZM42.7,7C41.9,7 41.2,7.7 41.2,8.5C41.2,9.3 41.9,10 42.7,10C43.5,10 44.2,9.3 44.2,8.5C44.2,7.7 43.5,7 42.7,7ZM42.7,9C42.4,9 42.2,8.8 42.2,8.5C42.2,8.2 42.4,8 42.7,8C43,8 43.2,8.2 43.2,8.5C43.2,8.8 43,9 42.7,9ZM91.1,61.2L88.1,59.2L51.5,59.2L48.5,61.2L48.5,62.5C48.5,63.3 49.1,64 49.9,64L89.9,64C90.7,64 91.4,63.3 91.4,62.5L91.4,61.2L91.1,61.2ZM87.5,60L89,61L86.2,61L85,60L87.6,60L87.5,60ZM83.6,60L84.7,61L81.5,61L80.6,60L83.6,60ZM79.6,60L80.3,61L76.9,61L76.3,60L79.6,60ZM75.6,60L76,61L72.5,61L72.3,60L75.7,60L75.6,60ZM67.9,60L71.4,60L71.4,61L67.9,61L67.9,60ZM63.7,60L67.1,60L66.8,61L63.3,61L63.7,60ZM59.8,60L63,60L62.4,61L59,61L59.8,60ZM55.8,60L58.7,60L57.8,61L54.7,61L55.8,60ZM51.8,60L54.4,60L53.2,61L50.3,61L51.8,60ZM90.2,62.5C90.2,62.8 90,63 89.7,63L49.7,63C49.4,63 49.2,62.8 49.2,62.5L49.2,62L90.2,62L90.2,62.5ZM46.7,7C45.9,7 45.2,7.7 45.2,8.5C45.2,9.3 45.9,10 46.7,10C47.5,10 48.2,9.3 48.2,8.5C48.2,7.7 47.5,7 46.7,7ZM46.7,9C46.4,9 46.2,8.8 46.2,8.5C46.2,8.2 46.4,8 46.7,8C47,8 47.2,8.2 47.2,8.5C47.2,8.8 47,9 46.7,9ZM118.8,59.7L118.8,59.5C118.7,59 118.5,58.7 118.3,58.4L118.3,58.3L118.2,58.2C117.4,57.2 116.4,56.6 115.2,56.3C114.9,56.3 114.6,56.2 114.3,56.1C114.3,55.5 114.7,55.1 115.3,55.1L116.3,55.1C117.4,55.1 118.3,54.2 118.3,53.1C118.3,52 117.4,51.1 116.3,51.1L112.3,51.1L112.3,7.5C112.3,6.1 111.2,5 109.8,5L37.7,5C36.3,5 35.2,6.1 35.2,7.5L35.2,12.4C35.2,12.7 35.4,12.9 35.7,12.9C36,12.9 36.2,12.7 36.2,12.4L36.2,12L111.2,12L111.2,54.5C111.2,54.8 111.4,55 111.7,55C112,55 112.2,54.8 112.2,54.5L112.2,52L116.2,52C116.8,52 117.2,52.4 117.2,53C117.2,53.6 116.8,54 116.2,54L115.2,54C114.1,54 113.2,54.9 113.2,56L113,56C112.7,56 112.5,56 112.2,56.2L112.1,56.2C111.8,56.2 111.6,56.4 111.3,56.5L111.1,56.5C110.9,56.7 110.8,56.8 110.6,57C110.5,57 110.4,57.1 110.3,57.2C110.1,57.3 110,57.5 109.8,57.6L109.6,57.8C109.4,58 109.3,58.2 109.1,58.4L109.1,58.5C109,58.7 108.9,59 108.8,59.2C108.8,59.3 108.6,59.8 108.6,59.8C108.5,60.3 108.4,60.9 108.4,61.4C108.4,61.9 108.4,62.5 108.6,63C108.8,63.5 109.2,63.9 109.8,63.9L117.9,63.9C118.5,63.9 119,63.5 119.1,63C119.4,61.9 119.4,60.7 119.1,59.6L118.8,59.7ZM111.2,11L36.2,11L36.2,7.5C36.2,6.7 36.9,6 37.7,6L109.7,6C110.5,6 111.2,6.7 111.2,7.5L111.2,11ZM114.2,57L114.8,57C115.7,57.2 116.6,57.8 117.2,58.5C117.4,58.7 117.5,59 117.7,59.2L116.7,59.6C116.2,58.7 115.3,58.1 114.2,57.9L114.2,56.9L114.2,57ZM109.8,59.3C109.8,59.2 110,59 110,58.9L110,58.7C110.3,58.5 110.4,58.4 110.5,58.3L110.7,58.1L111,57.9C111.1,57.9 111.3,57.7 111.4,57.6L111.7,57.4L112.1,57.2C112.2,57.2 112.3,57.2 112.4,57.1L112.7,57.1L113.1,56.9L113.1,57.9C112,58.1 111.1,58.7 110.5,59.6L109.6,59.2L109.6,59.1L109.8,59.3ZM118,62.8C118,62.8 117.9,62.9 117.8,63L109.7,63C109.6,63 109.5,63 109.5,62.8C109.4,62.4 109.3,62 109.3,61.5C109.3,61.1 109.3,60.7 109.4,60.4L111.3,61.1L111.5,60.6C112,59.3 113.4,58.7 114.7,59.2C115.4,59.5 115.9,60 116.1,60.6L116.3,61.1L118.1,60.4C118.3,61.2 118.3,62 118.1,62.8L118,62.8ZM17.2,17.4L39,17.4C41.2,17.4 43,19.2 43,21.5L43,66.9C43,69.2 41.2,71 39,71L17.2,71C15,71 13.2,69.2 13.2,66.9L13.2,21.6C13.2,19.3 15,17.5 17.2,17.5M17.2,16.4C14.4,16.4 12.2,18.7 12.2,21.5L12.2,66.9C12.2,69.7 14.5,72 17.2,72L39,72C41.8,72 44,69.7 44,66.9L44,21.6C44,18.8 41.7,16.5 39,16.5L17.2,16.5L17.2,16.4ZM15.6,24.9L40.7,24.9L40.7,62.9L15.6,62.9L15.6,24.9M15.6,23.9C15,23.9 14.6,24.3 14.6,24.9L14.6,62.9C14.6,63.2 14.7,63.4 14.9,63.6C15.1,63.8 15.3,63.9 15.6,63.9L40.7,63.9C41.3,63.9 41.7,63.5 41.7,62.9L41.7,24.9C41.7,24.6 41.6,24.4 41.4,24.2C41.2,24 41,23.9 40.7,23.9L15.6,23.9ZM21.6,66.9L34.5,66.9C34.7,66.9 34.9,67.1 34.9,67.3C34.9,67.5 34.7,67.7 34.5,67.7L21.6,67.7C21.4,67.7 21.2,67.5 21.2,67.3C21.2,67.1 21.4,66.9 21.6,66.9M21.6,65.9C20.8,65.9 20.2,66.5 20.2,67.3C20.2,68.1 20.8,68.7 21.6,68.7L34.5,68.7C35.3,68.7 35.9,68.1 35.9,67.3C35.9,66.5 35.3,65.9 34.5,65.9L21.6,65.9ZM81.8,33.8C82.5,33.8 83,33.2 83,32.5C83,31.8 82.4,31.3 81.8,31.3C81.2,31.3 80.6,31.9 80.6,32.5C80.6,33.2 81.2,33.8 81.8,33.8ZM80.6,34.2L80.6,37.8L79.5,35.4C80,34.8 80.2,33.9 80.2,33.3L80.2,32.8L78.2,32.8L78.2,33.3C78.2,33.9 78,34.2 77.4,34.4L77.4,31L75.4,31L75.4,32.4C74.7,31.7 73.7,31.3 72.5,31.3C71.3,31.3 70.1,31.7 69.4,32.6C69.2,32.9 69,33.1 68.8,33.5C68.3,33 67.6,32.8 66.8,32.8L64.1,32.8L64.1,39.9L65.9,39.9L65.9,38.2L66.8,38.2C67.6,38.2 68.3,37.9 68.8,37.4C68.9,37.7 69.1,38 69.4,38.3C70.1,39.1 71.2,39.6 72.5,39.6C73.8,39.6 74.8,39.2 75.6,38.3C75.6,38.3 75.7,38.2 75.7,38.1L77.4,38.1L77.4,36.3L77.7,36.3L78.5,38.1L83,38.1L83,34.2L80.6,34.2ZM67.1,36.3L66,36.3L66,34.6L67,34.6C67.2,34.6 67.7,34.8 67.7,35.4C67.7,36 67.5,36.3 67.1,36.3ZM72.5,38.3C71,38.3 69.7,37 69.7,35.4C69.7,33.8 71,32.6 72.5,32.6C74,32.6 75.3,33.9 75.3,35.4C75.3,37 74,38.3 72.5,38.3ZM72.5,35.6C71.3,35.6 70.6,35.8 70.4,35.9C70.6,36.9 71.5,37.6 72.5,37.6C73.5,37.6 74.4,36.9 74.6,35.9C74.3,35.9 73.7,35.6 72.5,35.6Z"/>
</svg>
