<?xml version="1.0" encoding="UTF-8" standalone="no"?>
<!DOCTYPE svg PUBLIC "-//W3C//DTD SVG 1.1//EN" "http://www.w3.org/Graphics/SVG/1.1/DTD/svg11.dtd">
<svg width="100%" height="100%" viewBox="0 0 579 274" version="1.1" xmlns="http://www.w3.org/2000/svg" xmlns:xlink="http://www.w3.org/1999/xlink" xml:space="preserve" xmlns:serif="http://www.serif.com/" style="fill-rule:evenodd;clip-rule:evenodd;stroke-linejoin:round;stroke-miterlimit:2;">
    <g id="Logo-Crop">
        <g id="logo_main">
            <path id="Shape" d="M541.13,85.77C561.94,85.77 578.88,68.42 578.88,47.1C578.88,26.63 561.59,9.35 541.13,9.35C520.67,9.35 503.38,26.64 503.38,47.1C503.38,68.42 520.31,85.77 541.13,85.77Z" style="fill:rgb(35,31,32);"/>
            <path id="Shape1" serif:id="Shape" d="M504.06,99.34L504.06,209.79L470.06,135.95C485.43,116.72 491.69,89.59 492.39,70.08L492.39,54.08L432.16,54.08L432.16,69.48C431.32,89.12 424.94,98.28 407.38,103.99L407.38,-0.01L346.11,0.05L346.11,44.36C323.78,21.58 292.97,9.58 256.55,9.58C216.68,9.58 183.65,23.39 161.05,49.49C154.196,57.465 148.438,66.32 143.93,75.82C129.12,60.61 108.51,54.12 84.04,54.12L0.04,54.12L0.04,273.16L56.04,273.16L56.04,220.88L84.04,220.88C108.43,220.88 129.04,212.74 143.92,197.34C148.531,207.155 154.492,216.276 161.63,224.44C184.25,250.07 217.07,263.58 256.55,263.58C295.19,263.58 327.55,250.08 350.16,224.52C351.73,222.75 353.22,220.9 354.67,219.04L407.38,219.04L407.38,164.69L415.46,162.83L441.46,219.07L578.2,219.07L578.2,99.34L504.06,99.34ZM86.1,163.15L55.98,163.15L55.98,110.43L85.23,110.43C92.81,110.43 105.46,115.54 105.46,135.75C105.51,148.76 100.13,163.15 86.1,163.15ZM255.98,223.29C208.75,223.29 170.33,183.92 170.33,135.54C170.33,89.12 209.54,49.89 255.98,49.89C302.42,49.89 341.63,89.12 341.63,135.54C341.63,183.92 303.21,223.29 255.98,223.29Z" style="fill:rgb(35,31,32);"/>
            <path id="Shape2" serif:id="Shape" d="M255.97,141.88C218.09,141.88 198.97,148.53 191.04,150.57C197.66,181.06 224.25,203.93 255.97,203.93C287.69,203.93 314.29,181.06 320.9,150.57C313.01,148.53 293.85,141.88 255.97,141.88Z" style="fill:rgb(85,75,78);"/>
        </g>
    </g>
</svg>
