<?xml version="1.0" encoding="UTF-8" standalone="no"?>
<svg
   id="Layer_1"
   data-name="Layer 1"
   viewBox="0 0 125 75"
   version="1.1"
   xml:space="preserve"
   xmlns="http://www.w3.org/2000/svg"
   xmlns:svg="http://www.w3.org/2000/svg"><defs
     id="defs1"><style
       id="style1">.cls-1{fill:#231f20;}</style></defs><path
     fill="#ffffff"
     fill-rule="evenodd"
     d="m 30.699452,8.0298828 c 0,2.2800402 1.869632,4.1292732 4.174873,4.1292732 h 34.597807 c 3.94327,0 7.190526,1.204821 9.741771,3.614463 2.551244,2.409643 3.826867,5.506897 3.826867,9.292963 0,3.499262 -1.275623,6.367312 -3.828067,8.604151 -2.550045,2.180438 -5.797301,3.270058 -9.740571,3.270058 H 54.435868 c -2.30644,0 -4.176073,1.848032 -4.176073,4.130471 0,2.280041 1.869633,4.129274 4.176073,4.129274 h 16.603491 l 14.959463,23.748416 c 0.927616,1.435225 2.232039,2.151637 3.913269,2.151637 1.856432,0 3.160855,-0.716412 3.914469,-2.151637 0.753612,-1.490426 0.60841,-3.068454 -0.434408,-4.731683 L 80.083918,43.048897 c 3.595263,-1.605628 6.436914,-3.957669 8.52375,-7.054923 2.088036,-3.154856 3.132055,-6.79692 3.132055,-10.927392 0,-4.188073 -0.957618,-7.858938 -2.870451,-11.013793 C 87.01404,10.896733 84.405194,8.4306904 81.041535,6.6522594 77.677876,4.8162268 73.822208,3.8994106 69.472132,3.8994106 H 34.875524 c -2.30644,0 -4.176072,1.8480326 -4.176072,4.1304722 z"
     clip-rule="evenodd"
     id="path1-3"
     style="fill:#231f20;fill-opacity:1;stroke-width:1.20002" /></svg>
