<svg xmlns="http://www.w3.org/2000/svg" viewBox="0 0 125 75">
  <path d="M96.831 6.429H26.626c-3.876.004-7.016 2.342-7.02 5.228v52.267c.004 2.886 3.144 5.224 7.02 5.227H96.83c3.876-.004 7.016-2.342 7.021-5.227V11.657c-.005-2.886-3.146-5.224-7.02-5.228zm4.211 57.495c0 1.732-1.886 3.136-4.212 3.136H26.627c-2.327 0-4.212-1.404-4.212-3.136v-47.04h78.628zm0-49.132H22.414v-3.135c0-1.732 1.887-3.137 4.213-3.137H96.83c2.327 0 4.212 1.405 4.212 3.137zm-71.607-4.18H28.03c-.776 0-1.404.467-1.404 1.045 0 .577.628 1.045 1.404 1.045h1.404c.775 0 1.403-.468 1.403-1.044 0-.578-.628-1.046-1.403-1.046zm6.15.083a1.729 1.77 0 0 0-1.068 0 1.786 1.827 0 0 0-.464.22c-.542.411-.542 1.072 0 1.484.138.092.295.167.464.22.34.111.728.111 1.067 0 .17-.053.327-.128.464-.22.542-.412.542-1.073 0-1.484a1.786 1.827 0 0 0-.464-.219zm5.621-.01c-.527-.162-1.135-.072-1.536.23a1.24 1.256 0 0 0-.294.344.727.744 0 0 0 0 .795c.071.127.171.243.294.345.554.404 1.44.404 1.994 0 .124-.102.224-.218.295-.345a.667.682 0 0 0 .112-.397c.004-.425-.339-.809-.865-.971zm54.22-.073H47.687c-.775 0-1.403.467-1.403 1.045 0 .577.628 1.045 1.403 1.045h47.74c.775 0 1.403-.468 1.403-1.045 0-.578-.628-1.045-1.404-1.045zM51.215 54.156c0-1.21 0-1.213-.16-1.24a86.408 86.408 0 0 0-.798-.116c-2.215-.31-4.197-1.317-5.308-2.698-.857-1.065-1.357-2.437-1.437-3.94l-.028-.507h4.467l.051.507c.16 1.637.953 2.766 2.333 3.313 1.754.696 4.347.45 5.533-.525.73-.598 1.062-1.31 1.066-2.285.004-.958-.285-1.617-.977-2.23-.738-.653-1.64-1.073-3.685-1.719-3.038-.958-4.26-1.528-5.533-2.58-.813-.672-1.25-1.195-1.617-1.94-.463-.933-.667-2.172-.537-3.24.206-1.69.878-2.859 2.28-3.97 1.082-.856 2.1-1.292 3.565-1.53l.786-.126v-3.45h3.313v3.461l.406.068c3.514.577 5.703 2.603 6.258 5.797.057.325.102.793.103 1.04l.001.448h-4.413l-.083-.68c-.152-1.225-.544-2.045-1.295-2.702-.754-.658-1.473-.897-2.703-.897-1.152 0-1.972.232-2.669.753-.672.504-1.016 1.204-1.08 2.196-.105 1.657.683 2.634 2.832 3.513.31.126 1.182.431 1.938.677 1.638.533 3.289 1.183 4.019 1.581 2.45 1.344 3.598 3.092 3.593 5.475-.002 1.87-.677 3.3-2.115 4.479-1.254 1.029-2.548 1.527-4.739 1.822l-.264.038v2.423h-3.103zM67.5 41.868v-3.672h2.962v7.343H67.5zm6.064-.029V35.71h2.89V47.97h-2.89zm5.993 0v-8.616h2.89v17.232h-2.89z"/>
</svg>
