<?xml version="1.0" encoding="UTF-8" standalone="no"?>
<!DOCTYPE svg PUBLIC "-//W3C//DTD SVG 1.1//EN" "http://www.w3.org/Graphics/SVG/1.1/DTD/svg11.dtd">
<svg width="100%" height="100%" viewBox="0 0 125 75" version="1.1" xmlns="http://www.w3.org/2000/svg" xmlns:xlink="http://www.w3.org/1999/xlink" xml:space="preserve" xmlns:serif="http://www.serif.com/" style="fill-rule:evenodd;clip-rule:evenodd;stroke-linejoin:round;stroke-miterlimit:2;">
    <path d="M96,59.5C96,59.774 95.774,60 95.5,60L80.5,60C80.226,60 80,59.774 80,59.5C80,59.226 80.226,59 80.5,59L95.5,59C95.774,59 96,59.226 96,59.5ZM27.5,7C26.677,7 26,7.677 26,8.5C26,9.323 26.677,10 27.5,10C28.323,10 29,9.323 29,8.5C29,7.677 28.323,7 27.5,7ZM27.5,9C27.226,9 27,8.774 27,8.5C27,8.226 27.226,8 27.5,8C27.774,8 28,8.226 28,8.5C28,8.774 27.774,9 27.5,9ZM31.5,7C30.677,7 30,7.677 30,8.5C30,9.323 30.677,10 31.5,10C32.323,10 33,9.323 33,8.5C33,7.677 32.323,7 31.5,7ZM31.5,9C31.226,9 31,8.774 31,8.5C31,8.226 31.226,8 31.5,8C31.774,8 32,8.226 32,8.5C32,8.774 31.774,9 31.5,9ZM35.5,7C34.677,7 34,7.677 34,8.5C34,9.323 34.677,10 35.5,10C36.323,10 37,9.323 37,8.5C37,7.677 36.323,7 35.5,7ZM35.5,9C35.226,9 35,8.774 35,8.5C35,8.226 35.226,8 35.5,8C35.774,8 36,8.226 36,8.5C36,8.774 35.774,9 35.5,9ZM107.67,59.66L107.67,59.31C107.523,58.958 107.339,58.623 107.12,58.31C107.091,58.277 107.067,58.24 107.05,58.2C107.014,58.162 106.981,58.122 106.95,58.08C106.199,57.114 105.14,56.433 103.95,56.15C103.637,56.077 103.32,56.027 103,56C103,55.451 103.451,55 104,55L105,55C106.097,55 107,54.097 107,53C107,51.903 106.097,51 105,51L101,51L101,7.5C101,6.129 99.871,5 98.5,5L26.5,5C25.129,5 24,6.129 24,7.5L24,57.5C24,58.871 25.129,60 26.5,60L36,60C36.274,60 36.5,59.774 36.5,59.5C36.5,59.226 36.274,59 36,59L26.5,59C25.677,59 25,58.323 25,57.5L25,12L100,12L100,54.5C100,54.774 100.226,55 100.5,55C100.774,55 101,54.774 101,54.5L101,52L105,52C105.549,52 106,52.451 106,53C106,53.549 105.549,54 105,54L104,54C102.903,54 102,54.903 102,56L101.75,56C101.48,56.041 101.213,56.098 100.95,56.17L100.82,56.17C100.559,56.252 100.304,56.356 100.06,56.48L99.82,56.61C99.645,56.704 99.478,56.811 99.32,56.93C99.214,56.995 99.114,57.069 99.02,57.15C98.85,57.29 98.69,57.44 98.54,57.59C98.461,57.669 98.388,57.752 98.32,57.84C98.146,58.039 97.986,58.249 97.84,58.47C97.821,58.515 97.797,58.559 97.77,58.6C97.637,58.828 97.521,59.066 97.42,59.31L97.36,59.42L97.18,59.89C97.038,60.414 96.978,60.957 97,61.5C97.001,62.038 97.079,62.573 97.23,63.09C97.385,63.627 97.881,64 98.44,64L106.56,64C107.119,64 107.615,63.627 107.77,63.09C108.103,61.965 108.068,60.763 107.67,59.66ZM25,11L25,7.5C25,6.677 25.677,6 26.5,6L98.5,6C99.323,6 100,6.677 100,7.5L100,11L25,11ZM99.45,59.79L98.51,59.43C98.53,59.388 98.553,59.348 98.58,59.31C98.654,59.171 98.737,59.037 98.83,58.91L98.97,58.72C99.083,58.565 99.211,58.422 99.35,58.29L99.56,58.1L99.82,57.9C99.944,57.804 100.074,57.717 100.21,57.64L100.48,57.49L100.84,57.33C100.96,57.33 101.07,57.24 101.19,57.21L101.53,57.12L101.93,57.05L102,57.05L102,58.05C100.929,58.209 99.989,58.851 99.45,59.79ZM103,57C103.209,57.019 103.416,57.052 103.62,57.1C104.559,57.33 105.396,57.865 106,58.62C106.181,58.853 106.341,59.1 106.48,59.36L105.48,59.72C104.954,58.804 104.042,58.172 103,58L103,57ZM106.81,62.77C106.776,62.88 106.675,62.957 106.56,62.96L98.44,62.96C98.321,62.959 98.217,62.876 98.19,62.76C98.066,62.351 98.002,61.927 98,61.5C97.999,61.115 98.05,60.732 98.15,60.36L100,61.08L100.18,60.6C100.544,59.637 101.471,58.996 102.5,58.996C103.529,58.996 104.456,59.637 104.82,60.6L105,61.08L106.85,60.37C107.058,61.172 107.044,62.015 106.81,62.81L106.81,62.77ZM80,61.35L80,61.29L79.95,61.22C79.932,61.192 79.908,61.168 79.88,61.15L76.88,59.15C76.805,59.103 76.718,59.078 76.63,59.08L40.47,59.08C40.382,59.078 40.295,59.103 40.22,59.15L37.22,61.15L37.15,61.22L37.15,61.35C37.146,61.383 37.146,61.417 37.15,61.45C37.154,61.483 37.15,61.45 37.15,61.45L37.15,62.45C37.12,63.238 37.716,63.922 38.5,64L78.5,64C79.323,64 80,63.323 80,62.5L80,61.5C80.009,61.45 80.009,61.4 80,61.35ZM77.85,61L75,61L73.8,60L76.37,60L77.85,61ZM47.53,60L46.61,61L43.47,61L44.59,60L47.53,60ZM48.59,60L51.8,60L51.19,61L47.83,61L48.59,60ZM52.66,60L56,60L55.71,61L52.25,61L52.66,60ZM56.78,60L60.21,60L60.21,61L56.71,61L56.78,60ZM61.22,61L61,60L64.38,60L64.76,61L61.22,61ZM65.77,61L65.18,60L68.4,60L69.14,61L65.77,61ZM70.36,61L69.46,60L72.4,60L73.52,61L70.36,61ZM40.65,60L43.21,60L42,61L39.15,61L40.65,60ZM79,62.5C78.995,62.772 78.772,62.995 78.5,63L38.5,63C38.228,62.995 38.005,62.772 38,62.5L38,62L79,62L79,62.5ZM50.645,48.137C50.645,46.927 50.645,46.924 50.485,46.897C50.219,46.857 49.953,46.818 49.687,46.781C47.472,46.471 45.49,45.464 44.379,44.083C43.522,43.018 43.022,41.646 42.942,40.143L42.914,39.636L47.381,39.636L47.432,40.143C47.592,41.78 48.385,42.909 49.765,43.456C51.519,44.152 54.112,43.906 55.298,42.931C56.028,42.333 56.36,41.621 56.364,40.646C56.368,39.688 56.079,39.029 55.387,38.416C54.649,37.763 53.747,37.343 51.702,36.697C48.664,35.739 47.442,35.169 46.169,34.117C45.356,33.445 44.919,32.922 44.552,32.177C44.089,31.244 43.885,30.005 44.015,28.937C44.221,27.247 44.893,26.078 46.295,24.967C47.377,24.111 48.395,23.675 49.86,23.437L50.646,23.311L50.646,19.861L53.959,19.861L53.959,23.322L54.365,23.39C57.879,23.967 60.068,25.993 60.623,29.187C60.68,29.512 60.725,29.98 60.726,30.227L60.727,30.675L56.314,30.675L56.231,29.995C56.079,28.77 55.687,27.95 54.936,27.293C54.182,26.635 53.463,26.396 52.233,26.396C51.081,26.396 50.261,26.628 49.564,27.149C48.892,27.653 48.548,28.353 48.484,29.345C48.379,31.002 49.167,31.979 51.316,32.858C51.626,32.984 52.498,33.289 53.254,33.535C54.892,34.068 56.543,34.718 57.273,35.116C59.723,36.46 60.871,38.208 60.866,40.591C60.864,42.461 60.189,43.891 58.751,45.07C57.497,46.099 56.203,46.597 54.012,46.892L53.748,46.93L53.748,49.353L50.645,49.353L50.645,48.137ZM66.93,39.52L66.93,32.177L69.892,32.177L69.892,39.52L66.93,39.52ZM72.994,41.951L72.994,29.691L75.884,29.691L75.884,41.951L72.994,41.951ZM78.987,44.436L78.987,27.204L81.877,27.204L81.877,44.436L78.987,44.436Z" style="fill:rgb(35,31,32);fill-rule:nonzero;"/>
</svg>
