<svg version="1.1" viewBox="0 0 16 16" xmlns="http://www.w3.org/2000/svg">
 <path d="m7.1343 11.328v1.534h-5.6487v-1.3101l2.5939-3.2983q0.37526-0.51351 0.58593-0.90853 0.21067-0.39502 0.30284-0.70444 0.09217-0.31601 0.09217-0.5991 0-0.42135-0.098753-0.72419-0.098753-0.30943-0.29626-0.47401-0.19092-0.17117-0.47401-0.17117-0.34235 0-0.56618 0.21067-0.22384 0.21067-0.33576 0.57935-0.10534 0.3621-0.10534 0.82294h-1.85q0-0.85586 0.34893-1.5734 0.35551-0.72419 0.99412-1.1455 0.64519-0.42793 1.5471-0.42793 0.87561 0 1.4747 0.32918 0.5991 0.32918 0.90194 0.94145 0.30943 0.60569 0.30943 1.455 0 0.47401-0.12509 0.92828-0.12509 0.44768-0.35551 0.89536-0.23042 0.44109-0.57277 0.90194-0.33576 0.46084-0.75052 0.95461l-1.2509 1.7842zm3.8185 1.534h-1.692l0.013167-1.5932h1.6788q0.69786 0 1.0863-0.25017 0.38843-0.25017 0.54643-0.79002 0.16459-0.53985 0.16459-1.4155v-1.4945q0-0.66494-0.08559-1.1258-0.085582-0.46743-0.28967-0.75052-0.20409-0.28968-0.54643-0.42793-0.34234-0.13826-0.84927-0.13826h-1.7513v-1.5998h1.7513q0.82952 0 1.5076 0.26992 0.67811 0.26992 1.1653 0.79002 0.48718 0.51351 0.75052 1.2706 0.26334 0.75709 0.26334 1.7249v1.4812q0 0.97437-0.26334 1.7249-0.26334 0.75053-0.75052 1.2706-0.48059 0.51351-1.1653 0.78344t-1.534 0.26992zm-0.57277-9.5856v9.5856h-1.929v-9.5856z"/>
</svg>
