<svg version="1.1" viewBox="0 0 16 16" xmlns="http://www.w3.org/2000/svg">
 <path d="m7.1558 11.245v1.4958h-5.5082v-1.2775l2.5294-3.2163q0.36593-0.50074 0.57136-0.88593 0.20543-0.38519 0.29531-0.68692 0.089877-0.30815 0.089877-0.5842 0-0.41087-0.096297-0.70618-0.096296-0.30173-0.28889-0.46222-0.18617-0.16691-0.46222-0.16691-0.33383 0-0.5521 0.20543-0.21827 0.20543-0.32741 0.56494-0.10272 0.35309-0.10272 0.80247h-1.804q0-0.83457 0.34025-1.5343 0.34667-0.70618 0.96939-1.117 0.62914-0.41729 1.5086-0.41729 0.85383 0 1.438 0.32099 0.5842 0.32099 0.87951 0.91803 0.30173 0.59062 0.30173 1.4188 0 0.46222-0.12198 0.90519-0.12198 0.43654-0.34667 0.87309-0.22469 0.43012-0.55852 0.87951-0.32741 0.44938-0.73185 0.93087l-1.2198 1.7398zm3.7235 1.4958h-1.6499l0.01284-1.5536h1.637q0.6805 0 1.0593-0.24395 0.37877-0.24395 0.53284-0.77037 0.1605-0.52642 0.1605-1.3803v-1.4573q0-0.6484-0.08346-1.0978-0.083455-0.4558-0.28247-0.73185-0.19901-0.28247-0.53284-0.41729t-0.82815-0.13482h-1.7077v-1.56h1.7077q0.80889 0 1.4701 0.26321 0.66124 0.26321 1.1363 0.77037 0.47506 0.50074 0.73185 1.239t0.25679 1.682v1.4444q0 0.95013-0.25679 1.682-0.25679 0.73186-0.73185 1.239-0.46864 0.50074-1.1363 0.76395-0.66766 0.26321-1.4958 0.26321zm-0.55852-9.3472v9.3472h-1.881v-9.3472z"/>
</svg>
