<?xml version="1.0" encoding="utf-8"?>
<!-- Generator: Adobe Illustrator 22.1.0, SVG Export Plug-In . SVG Version: 6.00 Build 0)  -->
<svg version="1.1" id="Layer_1" xmlns="http://www.w3.org/2000/svg" xmlns:xlink="http://www.w3.org/1999/xlink" x="0px" y="0px"
	 viewBox="0 0 16 16" style="enable-background:new 0 0 16 16;" xml:space="preserve">
<path d="M8.9,12.3l0.5,0.5C9,12.9,8.5,13,8,13c-2.9,0-5.5-2.1-6.5-5c1-2.9,3.6-5,6.5-5s5.5,2.1,6.5,5c-0.3,0.7-0.6,1.4-1,2h-2.6
	c0.4-0.6,0.6-1.3,0.6-2c0-1.9-1.6-3.5-3.5-3.5C7.3,4.5,6.7,4.7,6.1,5c0.1,0,0.3,0,0.4,0C7.3,5,8,5.7,8,6.5C8,7.3,7.3,8,6.5,8
	S5,7.3,5,6.5c0-0.1,0-0.3,0.1-0.4C4.7,6.7,4.5,7.3,4.5,8c0,1.9,1.6,3.5,3.5,3.5c0.2,0,0.3,0,0.5,0C8.5,11.8,8.6,12.1,8.9,12.3z
	 M15.1,11H9.8c0,0,0,0,0,0c-0.1,0-0.2,0.1-0.2,0.1c-0.1,0.1-0.1,0.3,0,0.5l0.9,0.9l1.7,1.7c0.1,0.1,0.2,0.2,0.3,0.2
	c0.1,0,0.2,0,0.3-0.2l2.6-2.6C15.6,11.4,15.5,11,15.1,11z"/>
</svg>
