<svg version="1.1" viewBox="0 0 16 16" xmlns="http://www.w3.org/2000/svg">
 <path d="m8 3c-2.9 0-5.5 2.1-6.5 5 0.2764 0.80155 0.67651 1.5415 1.1699 2.1934l1.8477-1.8477c-0.011783-0.11419-0.017578-0.22894-0.017578-0.3457 0-1.9 1.6-3.5 3.5-3.5 0.11676 0 0.23151 0.0057951 0.3457 0.017578l1.291-1.291c-0.52812-0.14717-1.0769-0.22656-1.6367-0.22656zm4 0.054688a0.94488 0.94488 0 0 0-0.66797 0.27734l-8 8a0.94488 0.94488 0 0 0 0 1.3359 0.94488 0.94488 0 0 0 1.3359 0l8-8a0.94488 0.94488 0 0 0 0-1.3359 0.94488 0.94488 0 0 0-0.66797-0.27734zm1.3301 2.752-1.8477 1.8477c0.011783 0.11419 0.017578 0.22894 0.017578 0.3457 0 1.9-1.6 3.5-3.5 3.5-0.11676 0-0.23151-0.005795-0.3457-0.017578l-1.291 1.291c0.52812 0.14717 1.0769 0.22656 1.6367 0.22656 2.9 0 5.5-2.1 6.5-5-0.2764-0.80155-0.67651-1.5415-1.1699-2.1934z"/>
</svg>
