<svg width="16px" height="16px" version="1.1" viewBox="0 0 16 16" xmlns="http://www.w3.org/2000/svg">
 <path d="m3.5 1a0.5 0.5 0 0 0-0.5 0.5v1.5h-1.5a0.5 0.5 0 0 0-0.5 0.5 0.5 0.5 0 0 0 0.5 0.5h1.5v2h-1.5a0.5 0.5 0 0 0-0.5 0.5 0.5 0.5 0 0 0 0.5 0.5h1.5v2h-1.5a0.5 0.5 0 0 0-0.5 0.5 0.5 0.5 0 0 0 0.5 0.5h1.5v2h-1.5a0.5 0.5 0 0 0-0.5 0.5 0.5 0.5 0 0 0 0.5 0.5h1.5v1.5a0.5 0.5 0 0 0 0.5 0.5 0.5 0.5 0 0 0 0.5-0.5v-1.5h2v1.5a0.5 0.5 0 0 0 0.5 0.5 0.5 0.5 0 0 0 0.5-0.5v-1.5h2v1.5a0.5 0.5 0 0 0 0.5 0.5 0.5 0.5 0 0 0 0.5-0.5v-1.5h2v1.5a0.5 0.5 0 0 0 0.5 0.5 0.5 0.5 0 0 0 0.5-0.5v-1.5h1.5a0.5 0.5 0 0 0 0.5-0.5 0.5 0.5 0 0 0-0.5-0.5h-1.5v-2h1.5a0.5 0.5 0 0 0 0.5-0.5 0.5 0.5 0 0 0-0.5-0.5h-1.5v-2h1.5a0.5 0.5 0 0 0 0.5-0.5 0.5 0.5 0 0 0-0.5-0.5h-1.5v-2h1.5a0.5 0.5 0 0 0 0.5-0.5 0.5 0.5 0 0 0-0.5-0.5h-1.5v-1.5a0.5 0.5 0 0 0-0.5-0.5 0.5 0.5 0 0 0-0.5 0.5v1.5h-2v-1.5a0.5 0.5 0 0 0-0.5-0.5 0.5 0.5 0 0 0-0.5 0.5v1.5h-2v-1.5a0.5 0.5 0 0 0-0.5-0.5 0.5 0.5 0 0 0-0.5 0.5v1.5h-2v-1.5a0.5 0.5 0 0 0-0.5-0.5zm0.5 3h2v2h-2v-2zm3 0h2v2h-2v-2zm3 0h2v2h-2v-2zm-6 3h2v2h-2v-2zm3 0h2v2h-2v-2zm3 0h2v2h-2v-2zm-6 3h2v2h-2v-2zm3 0h2v2h-2v-2zm3 0h2v2h-2v-2z"/>
</svg>
