<?xml version="1.0" encoding="UTF-8"?>
<svg width="16px" height="16px" viewBox="0 0 16 16" version="1.1" xmlns="http://www.w3.org/2000/svg" xmlns:xlink="http://www.w3.org/1999/xlink">
    <path d="M8.5,6.30901699 L8.5,13.190983 L11.5,11.690983 L11.5,4.80901699 L8.5,6.30901699 Z M7.5,6.30901699 L4.5,4.80901699 L4.5,11.690983 L7.5,13.190983 L7.5,6.30901699 Z M8,2.55901699 L5.11803399,4 L8,5.44098301 L10.881966,4 L8,2.55901699 Z M7.7763932,5.5527864 L11.7763932,3.5527864 C12.1088437,3.38656113 12.5,3.62830899 12.5,4 L12.5,12 C12.5,12.189386 12.3929988,12.3625176 12.2236068,12.4472136 L8.2236068,14.4472136 C7.89115625,14.6134389 7.5,14.371691 7.5,14 L7.5,6 C7.5,5.81061397 7.60700119,5.63748241 7.7763932,5.5527864 Z M8.2236068,5.5527864 C8.39299881,5.63748241 8.5,5.81061397 8.5,6 L8.5,14 C8.5,14.371691 8.10884375,14.6134389 7.7763932,14.4472136 L3.7763932,12.4472136 C3.60700119,12.3625176 3.5,12.189386 3.5,12 L3.5,4 C3.5,3.62830899 3.89115625,3.38656113 4.2236068,3.5527864 L8.2236068,5.5527864 Z M8.2236068,1.5527864 L12.2236068,3.5527864 C12.5921311,3.73704854 12.5921311,4.26295146 12.2236068,4.4472136 L8.2236068,6.4472136 C8.08284305,6.51759547 7.91715695,6.51759547 7.7763932,6.4472136 L3.7763932,4.4472136 C3.40786893,4.26295146 3.40786893,3.73704854 3.7763932,3.5527864 L7.7763932,1.5527864 C7.91715695,1.48240453 8.08284305,1.48240453 8.2236068,1.5527864 Z" id="orthograpic" fill="#000000" fill-rule="nonzero"/>
</svg>
