<?xml version="1.0" encoding="UTF-8"?>
<svg width="16px" height="16px" viewBox="0 0 16 16" version="1.1" xmlns="http://www.w3.org/2000/svg" xmlns:xlink="http://www.w3.org/1999/xlink">
    <path d="M8.5,6.36037961 L8.5,13.3062871 L10.6047153,12.6047153 L13.2094306,4.79056942 L8.5,6.36037961 Z M2.79056942,4.79056942 L5.39528471,12.6047153 L7.5,13.3062871 L7.5,6.36037961 L2.79056942,4.79056942 Z M3.58113883,4 L8,5.47295372 L12.4188612,4 L8,2.52704628 L3.58113883,4 Z M7.84188612,5.52565835 L13.8418861,3.52565835 C14.2327651,3.39536535 14.6046347,3.76723487 14.4743416,4.15811388 L11.4743416,13.1581139 C11.4245741,13.3074164 11.3074164,13.4245741 11.1581139,13.4743416 L8.15811388,14.4743416 C7.83434833,14.5822635 7.5,14.3412789 7.5,14 L7.5,6 C7.5,5.7847848 7.63771505,5.59371537 7.84188612,5.52565835 Z M8.15811388,5.52565835 C8.36228495,5.59371537 8.5,5.7847848 8.5,6 L8.5,14 C8.5,14.3412789 8.16565167,14.5822635 7.84188612,14.4743416 L4.84188612,13.4743416 C4.69258362,13.4245741 4.57542585,13.3074164 4.52565835,13.1581139 L1.52565835,4.15811388 C1.39536535,3.76723487 1.76723487,3.39536535 2.15811388,3.52565835 L8.15811388,5.52565835 Z M8.15811388,1.52565835 L14.1581139,3.52565835 C14.613962,3.67760774 14.613962,4.32239226 14.1581139,4.47434165 L8.15811388,6.47434165 C8.05548048,6.50855278 7.94451952,6.50855278 7.84188612,6.47434165 L1.84188612,4.47434165 C1.38603796,4.32239226 1.38603796,3.67760774 1.84188612,3.52565835 L7.84188612,1.52565835 C7.94451952,1.49144722 8.05548048,1.49144722 8.15811388,1.52565835 Z" id="perspective" fill="#000000" fill-rule="nonzero"/>
</svg>
