{
	"asset":{
		"generator":"Khronos glTF Blender I/O v4.5.51",
		"version":"2.0"
	},
	"extensionsUsed":[
		"KHR_materials_specular"
	],
	"scene":0,
	"scenes":[
		{
			"name":"Scene",
			"nodes":[
				0
			]
		}
	],
	"nodes":[
		{
			"mesh":0,
			"name":"pSphere1",
			"rotation":[
				0.7071068286895752,
				0,
				0,
				0.7071068286895752
			]
		}
	],
	"materials":[
		{
			"alphaMode":"MASK",
			"doubleSided":true,
			"extensions":{
				"KHR_materials_specular":{
					"specularFactor":0
				}
			},
			"name":"default",
			"pbrMetallicRoughness":{
				"baseColorFactor":[
					0.4000000059604645,
					0.4000000059604645,
					0.4000000059604645,
					0
				],
				"metallicFactor":0,
				"roughnessFactor":0.5
			}
		}
	],
	"meshes":[
		{
			"name":"Sphere_001",
			"primitives":[
				{
					"attributes":{
						"POSITION":0,
						"NORMAL":1,
						"TEXCOORD_0":2
					},
					"indices":3,
					"material":0
				}
			]
		}
	],
	"accessors":[
		{
			"bufferView":0,
			"componentType":5126,
			"count":401,
			"max":[
				0.5,
				0.5,
				0.5
			],
			"min":[
				-0.5,
				-0.5,
				-0.5
			],
			"type":"VEC3"
		},
		{
			"bufferView":1,
			"componentType":5126,
			"count":401,
			"type":"VEC3"
		},
		{
			"bufferView":2,
			"componentType":5126,
			"count":401,
			"type":"VEC2"
		},
		{
			"bufferView":3,
			"componentType":5123,
			"count":2280,
			"type":"SCALAR"
		}
	],
	"bufferViews":[
		{
			"buffer":0,
			"byteLength":4812,
			"byteOffset":0,
			"target":34962
		},
		{
			"buffer":0,
			"byteLength":4812,
			"byteOffset":4812,
			"target":34962
		},
		{
			"buffer":0,
			"byteLength":3208,
			"byteOffset":9624,
			"target":34962
		},
		{
			"buffer":0,
			"byteLength":4560,
			"byteOffset":12832,
			"target":34963
		}
	],
	"buffers":[
		{
			"byteLength":17392,
			"uri":"data:application/octet-stream;base64,"
		}
	]
}
